<?xml version="1.0" encoding="utf-8" standalone="no"?>
<!DOCTYPE svg PUBLIC "-//W3C//DTD SVG 1.1//EN"
  "http://www.w3.org/Graphics/SVG/1.1/DTD/svg11.dtd">
<!-- Created with matplotlib (http://matplotlib.org/) -->
<svg height="216pt" version="1.1" viewBox="0 0 216 216" width="216pt" xmlns="http://www.w3.org/2000/svg" xmlns:xlink="http://www.w3.org/1999/xlink">
 <defs>
  <style type="text/css">
*{stroke-linecap:butt;stroke-linejoin:round;stroke-miterlimit:100000;}
  </style>
 </defs>
 <g id="figure_1">
  <g id="patch_1">
   <path d="M 0 216 
L 216 216 
L 216 0 
L 0 0 
z
" style="fill:#ffffff;"/>
  </g>
  <g id="axes_1">
   <g id="patch_2">
    <path d="M 42.414938 177.740218 
L 200.247728 177.740218 
L 200.247728 19.907429 
L 42.414938 19.907429 
z
" style="fill:#ffffff;"/>
   </g>
   <g id="matplotlib.axis_1">
    <g id="xtick_1">
     <g id="line2d_1"/>
     <g id="line2d_2"/>
     <g id="text_1">
      <!-- $10^{-3}$ -->
      <defs>
       <path d="M 65.90625 23 
C 67.59375 23 69.40625 23 69.40625 25 
C 69.40625 27 67.59375 27 65.90625 27 
L 11.796875 27 
C 10.09375 27 8.296875 27 8.296875 25 
C 8.296875 23 10.09375 23 11.796875 23 
z
" id="CMSY10-0"/>
       <path d="M 22.09375 33.703125 
C 31 33.703125 34.90625 25.96875 34.90625 17.03125 
C 34.90625 5 28.5 0.390625 22.703125 0.390625 
C 17.40625 0.390625 8.796875 3.03125 6.09375 10.828125 
C 6.59375 10.625 7.09375 10.625 7.59375 10.625 
C 10 10.625 11.796875 12.21875 11.796875 14.8125 
C 11.796875 17.703125 9.59375 19 7.59375 19 
C 5.90625 19 3.296875 18.203125 3.296875 14.46875 
C 3.296875 5.234375 12.296875 -2 22.90625 -2 
C 34 -2 42.5 6.71875 42.5 16.953125 
C 42.5 26.671875 34.5 33.6875 25 34.796875 
C 32.59375 36.375 39.90625 43.0625 39.90625 52.015625 
C 39.90625 59.6875 32 65.296875 23 65.296875 
C 13.90625 65.296875 5.90625 59.828125 5.90625 52.015625 
C 5.90625 48.59375 8.5 48 9.796875 48 
C 11.90625 48 13.703125 49.296875 13.703125 51.890625 
C 13.703125 54.46875 11.90625 55.765625 9.796875 55.765625 
C 9.40625 55.765625 8.90625 55.765625 8.5 55.578125 
C 11.40625 61.859375 19.296875 63 22.796875 63 
C 26.296875 63 32.90625 61.328125 32.90625 51.875 
C 32.90625 49.109375 32.5 44.1875 29.09375 39.84375 
C 26.09375 36 22.703125 36 19.40625 35.6875 
C 18.90625 35.6875 16.59375 35.453125 16.203125 35.453125 
C 15.5 35.359375 15.09375 35.265625 15.09375 34.5 
C 15.09375 33.796875 15.203125 33.703125 17.203125 33.703125 
z
" id="CMR17-51"/>
       <path d="M 26.59375 63.40625 
C 26.59375 65.5 26.5 65.5 25.09375 65.5 
C 21.203125 61.1875 15.296875 59.796875 9.703125 59.796875 
C 9.40625 59.796875 8.90625 59.796875 8.796875 59.5 
C 8.703125 59.296875 8.703125 59.09375 8.703125 57 
C 11.796875 57 17 57.59375 21 59.984375 
L 21 7.203125 
C 21 3.6875 20.796875 2.5 12.203125 2.5 
L 9.203125 2.5 
L 9.203125 0 
C 14 0 19 0 23.796875 0 
C 28.59375 0 33.59375 0 38.40625 0 
L 38.40625 2.5 
L 35.40625 2.5 
C 26.796875 2.5 26.59375 3.59375 26.59375 7.15625 
z
" id="CMR17-49"/>
       <path d="M 42 31.640625 
C 42 37.75 41.90625 48.125 37.703125 56.109375 
C 34 63.109375 28.09375 65.59375 22.90625 65.59375 
C 18.09375 65.59375 12 63.40625 8.203125 56.203125 
C 4.203125 48.71875 3.796875 39.4375 3.796875 31.640625 
C 3.796875 25.953125 3.90625 17.28125 7 9.671875 
C 11.296875 -0.609375 19 -2 22.90625 -2 
C 27.5 -2 34.5 -0.109375 38.59375 9.375 
C 41.59375 16.28125 42 24.359375 42 31.640625 
M 22.90625 -0.40625 
C 16.5 -0.40625 12.703125 5.078125 11.296875 12.6875 
C 10.203125 18.5625 10.203125 27.15625 10.203125 32.75 
C 10.203125 40.4375 10.203125 46.828125 11.5 52.921875 
C 13.40625 61.390625 19 64 22.90625 64 
C 27 64 32.296875 61.296875 34.203125 53.125 
C 35.5 47.4375 35.59375 40.734375 35.59375 32.75 
C 35.59375 26.25 35.59375 18.265625 34.40625 12.375 
C 32.296875 1.484375 26.40625 -0.40625 22.90625 -0.40625 
" id="CMR17-48"/>
      </defs>
      <g style="fill:#262626;" transform="translate(33.5506570089 185.993437585)scale(0.07497 -0.07497)">
       <use transform="scale(0.996264009963)" xlink:href="#CMR17-49"/>
       <use transform="translate(45.6904771171 0.0)scale(0.996264009963)" xlink:href="#CMR17-48"/>
       <use transform="translate(91.3809542341 36.1536389419)scale(0.697381766617)" xlink:href="#CMSY10-0"/>
       <use transform="translate(145.621947482 36.1536389419)scale(0.697381766617)" xlink:href="#CMR17-51"/>
      </g>
     </g>
    </g>
    <g id="xtick_2">
     <g id="line2d_3"/>
     <g id="line2d_4"/>
     <g id="text_2">
      <!-- $10^{-2}$ -->
      <defs>
       <path d="M 41.703125 15.453125 
L 39.90625 15.453125 
C 38.90625 8.375 38.09375 7.171875 37.703125 6.5625 
C 37.203125 5.765625 30 5.765625 28.59375 5.765625 
L 9.40625 5.765625 
C 13 9.671875 20 16.75 28.5 24.953125 
C 34.59375 30.734375 41.703125 37.53125 41.703125 47.421875 
C 41.703125 59.21875 32.296875 66 21.796875 66 
C 10.796875 66 4.09375 56.3125 4.09375 47.34375 
C 4.09375 43.4375 7 42.9375 8.203125 42.9375 
C 9.203125 42.9375 12.203125 43.546875 12.203125 47.03125 
C 12.203125 50.109375 9.59375 51 8.203125 51 
C 7.59375 51 7 50.90625 6.59375 50.703125 
C 8.5 59.21875 14.296875 63.40625 20.40625 63.40625 
C 29.09375 63.40625 34.796875 56.515625 34.796875 47.421875 
C 34.796875 38.734375 29.703125 31.25 24 24.75 
L 4.09375 2.28125 
L 4.09375 0 
L 39.296875 0 
z
" id="CMR17-50"/>
      </defs>
      <g style="fill:#262626;" transform="translate(86.1615868756 185.993437585)scale(0.07497 -0.07497)">
       <use transform="scale(0.996264009963)" xlink:href="#CMR17-49"/>
       <use transform="translate(45.6904771171 0.0)scale(0.996264009963)" xlink:href="#CMR17-48"/>
       <use transform="translate(91.3809542341 36.1536389419)scale(0.697381766617)" xlink:href="#CMSY10-0"/>
       <use transform="translate(145.621947482 36.1536389419)scale(0.697381766617)" xlink:href="#CMR17-50"/>
      </g>
     </g>
    </g>
    <g id="xtick_3">
     <g id="line2d_5"/>
     <g id="line2d_6"/>
     <g id="text_3">
      <!-- $10^{-1}$ -->
      <g style="fill:#262626;" transform="translate(138.772516742 185.993437585)scale(0.07497 -0.07497)">
       <use transform="scale(0.996264009963)" xlink:href="#CMR17-49"/>
       <use transform="translate(45.6904771171 0.0)scale(0.996264009963)" xlink:href="#CMR17-48"/>
       <use transform="translate(91.3809542341 36.1536389419)scale(0.697381766617)" xlink:href="#CMSY10-0"/>
       <use transform="translate(145.621947482 36.1536389419)scale(0.697381766617)" xlink:href="#CMR17-49"/>
      </g>
     </g>
    </g>
    <g id="xtick_4">
     <g id="line2d_7"/>
     <g id="line2d_8"/>
     <g id="text_4">
      <!-- $10^{0}$ -->
      <g style="fill:#262626;" transform="translate(194.215455056 185.927005796)scale(0.07497 -0.07497)">
       <use transform="scale(0.996264009963)" xlink:href="#CMR17-49"/>
       <use transform="translate(45.6904771171 0.0)scale(0.996264009963)" xlink:href="#CMR17-48"/>
       <use transform="translate(91.3809542341 36.1536389419)scale(0.697381766617)" xlink:href="#CMR17-48"/>
      </g>
     </g>
    </g>
    <g id="xtick_5">
     <g id="line2d_9"/>
     <g id="line2d_10"/>
    </g>
    <g id="xtick_6">
     <g id="line2d_11"/>
     <g id="line2d_12"/>
    </g>
    <g id="xtick_7">
     <g id="line2d_13"/>
     <g id="line2d_14"/>
    </g>
    <g id="xtick_8">
     <g id="line2d_15"/>
     <g id="line2d_16"/>
    </g>
    <g id="xtick_9">
     <g id="line2d_17"/>
     <g id="line2d_18"/>
    </g>
    <g id="xtick_10">
     <g id="line2d_19"/>
     <g id="line2d_20"/>
    </g>
    <g id="xtick_11">
     <g id="line2d_21"/>
     <g id="line2d_22"/>
    </g>
    <g id="xtick_12">
     <g id="line2d_23"/>
     <g id="line2d_24"/>
    </g>
    <g id="xtick_13">
     <g id="line2d_25"/>
     <g id="line2d_26"/>
    </g>
    <g id="xtick_14">
     <g id="line2d_27"/>
     <g id="line2d_28"/>
    </g>
    <g id="xtick_15">
     <g id="line2d_29"/>
     <g id="line2d_30"/>
    </g>
    <g id="xtick_16">
     <g id="line2d_31"/>
     <g id="line2d_32"/>
    </g>
    <g id="xtick_17">
     <g id="line2d_33"/>
     <g id="line2d_34"/>
    </g>
    <g id="xtick_18">
     <g id="line2d_35"/>
     <g id="line2d_36"/>
    </g>
    <g id="xtick_19">
     <g id="line2d_37"/>
     <g id="line2d_38"/>
    </g>
    <g id="xtick_20">
     <g id="line2d_39"/>
     <g id="line2d_40"/>
    </g>
    <g id="xtick_21">
     <g id="line2d_41"/>
     <g id="line2d_42"/>
    </g>
    <g id="xtick_22">
     <g id="line2d_43"/>
     <g id="line2d_44"/>
    </g>
    <g id="xtick_23">
     <g id="line2d_45"/>
     <g id="line2d_46"/>
    </g>
    <g id="xtick_24">
     <g id="line2d_47"/>
     <g id="line2d_48"/>
    </g>
    <g id="xtick_25">
     <g id="line2d_49"/>
     <g id="line2d_50"/>
    </g>
    <g id="xtick_26">
     <g id="line2d_51"/>
     <g id="line2d_52"/>
    </g>
    <g id="xtick_27">
     <g id="line2d_53"/>
     <g id="line2d_54"/>
    </g>
    <g id="xtick_28">
     <g id="line2d_55"/>
     <g id="line2d_56"/>
    </g>
    <g id="text_5">
     <!-- selection coefficient env. 1, $1-w(x=1)$ -->
     <defs>
      <path d="M 15.5 61.078125 
C 15.5 63.265625 13.703125 65.15625 11.40625 65.15625 
C 9.203125 65.15625 7.296875 63.375 7.296875 61.078125 
C 7.296875 58.890625 9.09375 57 11.40625 57 
C 13.59375 57 15.5 58.796875 15.5 61.078125 
M 3.796875 42.28125 
L 3.796875 39.703125 
C 9.40625 39.703125 10.203125 39.09375 10.203125 34.328125 
L 10.203125 6.671875 
C 10.203125 2.875 9.796875 2.390625 3.40625 2.390625 
L 3.40625 -0.203125 
C 5.796875 0 10.09375 0 12.59375 0 
C 15 0 19.09375 0 21.40625 -0.203125 
L 21.40625 2.390625 
C 15.5 2.390625 15.296875 2.984375 15.296875 6.5625 
L 15.296875 43.375 
z
" id="CMR17-105"/>
      <path d="M 34.40625 6.09375 
C 36.59375 0.09375 42.796875 -1 46.59375 -1 
C 54.203125 -1 58.703125 5.59375 61.5 12.46875 
C 63.796875 18.265625 67.5 31.4375 67.5 37.328125 
C 67.5 43.40625 64.40625 44 63.5 44 
C 61.09375 44 58.90625 41.609375 58.90625 39.609375 
C 58.90625 38.421875 59.59375 37.71875 60.09375 37.328125 
C 61 36.421875 63.59375 33.734375 63.59375 28.546875 
C 63.59375 25.140625 60.796875 15.765625 58.703125 11.078125 
C 55.90625 4.984375 52.203125 1 47 1 
C 41.40625 1 39.59375 5.1875 39.59375 9.78125 
C 39.59375 12.671875 40.5 16.171875 40.90625 17.859375 
L 45.09375 34.625 
C 45.59375 36.625 46.5 40.109375 46.5 40.515625 
C 46.5 42.015625 45.296875 43.015625 43.796875 43.015625 
C 40.90625 43.015625 40.203125 40.515625 39.59375 38.125 
C 38.59375 34.234375 34.40625 17.359375 34 15.171875 
C 33.59375 13.46875 33.59375 12.375 33.59375 10.171875 
C 33.59375 7.78125 30.40625 3.984375 30.296875 3.796875 
C 29.203125 2.6875 27.59375 1 24.5 1 
C 16.59375 1 16.59375 8.484375 16.59375 10.171875 
C 16.59375 13.375 17.296875 17.765625 21.796875 29.640625 
C 23 32.734375 23.5 34.03125 23.5 36.015625 
C 23.5 40.21875 20.5 44 15.59375 44 
C 6.40625 44 2.703125 29.53125 2.703125 28.734375 
C 2.703125 28.34375 3.09375 27.84375 3.796875 27.84375 
C 4.703125 27.84375 4.796875 28.234375 5.203125 29.625 
C 7.703125 38.34375 11.59375 41.90625 15.296875 41.90625 
C 16.296875 41.90625 17.90625 41.90625 17.90625 38.71875 
C 17.90625 38.21875 17.90625 36.125 16.203125 31.734375 
C 11.5 19.265625 10.5 15.171875 10.5 11.375 
C 10.5 0.890625 19.09375 -1 24.203125 -1 
C 25.90625 -1 30.40625 -1 34.40625 6.09375 
" id="CMMI12-119"/>
      <path d="M 30.59375 -24.390625 
C 30.59375 -24.296875 30.59375 -24.09375 30.296875 -23.796875 
C 25.703125 -19.125 13.40625 -6.359375 13.40625 24.6875 
C 13.40625 55.765625 25.5 68.421875 30.40625 73.390625 
C 30.40625 73.5 30.59375 73.703125 30.59375 74 
C 30.59375 74.296875 30.296875 74.5 29.90625 74.5 
C 28.796875 74.5 20.296875 67.125 15.40625 56.15625 
C 10.40625 45.109375 9 34.359375 9 24.8125 
C 9 17.625 9.703125 5.484375 15.703125 -7.359375 
C 20.5 -17.734375 28.703125 -25 29.90625 -25 
C 30.40625 -25 30.59375 -24.796875 30.59375 -24.390625 
" id="CMR17-40"/>
      <path d="M 64.90625 43.1875 
C 62.5 43.1875 55.09375 43.1875 53.203125 42.796875 
C 52.59375 42.578125 52.40625 42.578125 51.203125 42.578125 
L 39.796875 42.578125 
L 39.796875 54.203125 
C 39.796875 63.640625 47.40625 68 53.40625 68 
C 55.296875 68 59.59375 67.5 61.796875 64.078125 
C 60.796875 64.078125 57.59375 64.078125 57.59375 60.59375 
C 57.59375 58.203125 59.203125 57 61.203125 57 
C 63 57 64.796875 58 64.796875 60.703125 
C 64.796875 65.703125 60 69.59375 53.796875 69.59375 
C 50.703125 69.59375 44.203125 68.90625 39 63.984375 
C 37.703125 66.59375 34.40625 69.59375 28.703125 69.59375 
C 21 69.59375 9.90625 65.125 9.90625 54.203125 
L 9.90625 42.578125 
L 1.90625 42.578125 
L 1.90625 40 
L 9.90625 40 
L 9.90625 6.671875 
C 9.90625 2.875 9.5 2.390625 3.09375 2.390625 
L 3.09375 -0.203125 
C 5.5 0 9.90625 0 12.40625 0 
C 15 0 19.40625 0 21.796875 -0.203125 
L 21.796875 2.390625 
C 15.40625 2.390625 15 2.78125 15 6.671875 
L 15 40 
L 34.90625 40 
L 34.90625 6.671875 
C 34.90625 2.875 34.5 2.390625 28.09375 2.390625 
L 28.09375 -0.203125 
C 30.5 0 34.90625 0 37.40625 0 
C 40 0 44.40625 0 46.796875 -0.203125 
L 46.796875 2.390625 
C 40.40625 2.390625 40 2.78125 40 6.671875 
L 40 40 
L 54.703125 40 
C 59 40 59.796875 39.09375 59.796875 34.71875 
L 59.796875 6.671875 
C 59.796875 2.875 59.40625 2.390625 53 2.390625 
L 53 -0.203125 
C 55.40625 0 59.796875 0 62.296875 0 
C 64.90625 0 69.296875 0 71.703125 -0.203125 
L 71.703125 2.390625 
C 65.296875 2.390625 64.90625 2.78125 64.90625 6.671875 
z
M 14.796875 42.578125 
L 14.796875 54.203125 
C 14.796875 63.546875 22.203125 68 28.40625 68 
C 31.90625 68 35.296875 66.5 36.796875 64.078125 
C 35.796875 64.078125 32.5 64.078125 32.5 60.578125 
C 32.5 58.78125 33.5 57.59375 35.09375 57.09375 
C 34.90625 56.1875 34.90625 54.234375 34.90625 54.140625 
L 34.90625 42.578125 
z
" id="CMR17-14"/>
      <path d="M 47.40625 40.71875 
C 44.203125 40.109375 43 37.71875 43 35.828125 
C 43 33.421875 44.90625 32.625 46.296875 32.625 
C 49.296875 32.625 51.40625 35.21875 51.40625 37.921875 
C 51.40625 42.109375 46.59375 44 42.40625 44 
C 36.296875 44 32.90625 38.015625 32 36.125 
C 29.703125 44 23.5 44 21.703125 44 
C 11.5 44 6.09375 30.9375 6.09375 28.734375 
C 6.09375 28.34375 6.5 27.84375 7.203125 27.84375 
C 8 27.84375 8.203125 28.4375 8.40625 28.84375 
C 11.796875 39.921875 18.5 42.015625 21.40625 42.015625 
C 25.90625 42.015625 26.796875 37.8125 26.796875 35.421875 
C 26.796875 33.234375 26.203125 30.9375 25 26.140625 
L 21.59375 12.46875 
C 20.09375 6.484375 17.203125 1 11.90625 1 
C 11.40625 1 8.90625 1 6.796875 2.296875 
C 10.40625 3 11.203125 5.984375 11.203125 7.1875 
C 11.203125 9.1875 9.703125 10.375 7.796875 10.375 
C 5.40625 10.375 2.796875 8.28125 2.796875 5.09375 
C 2.796875 0.890625 7.5 -1 11.796875 -1 
C 16.59375 -1 20 2.796875 22.09375 6.890625 
C 23.703125 1 28.703125 -1 32.40625 -1 
C 42.59375 -1 48 12.078125 48 14.265625 
C 48 14.765625 47.59375 15.171875 47 15.171875 
C 46.09375 15.171875 46 14.671875 45.703125 13.875 
C 43 5.09375 37.203125 1 32.703125 1 
C 29.203125 1 27.296875 3.59375 27.296875 7.6875 
C 27.296875 9.875 27.703125 11.46875 29.296875 18.0625 
L 32.796875 31.625 
C 34.296875 37.625 37.703125 42.015625 42.296875 42.015625 
C 42.5 42.015625 45.296875 42.015625 47.40625 40.71875 
" id="CMMI12-120"/>
      <path d="M 15.796875 1.59375 
C 16 0.703125 16 0.390625 16 -1.203125 
C 16 -7.234375 14 -12.765625 9.796875 -17.796875 
C 9.296875 -18.28125 9.296875 -18.484375 9.296875 -18.703125 
C 9.296875 -19.09375 9.703125 -19.5 10.09375 -19.5 
C 10.703125 -19.5 17.59375 -12.484375 17.59375 -1.359375 
C 17.59375 1.9375 17.203125 8.15625 12.5 8.15625 
C 10.296875 8.15625 8.40625 6.671875 8.40625 4.078125 
C 8.40625 1.5 10.296875 0 12.5 0 
C 13.703125 0 15 0.5 15.796875 1.59375 
" id="CMR17-44"/>
      <path d="M 34.90625 35 
C 33 35 30.203125 35 30.203125 31.515625 
C 30.203125 28.71875 32.5 27.921875 33.796875 27.921875 
C 34.5 27.921875 37.40625 28.234375 37.40625 31.625 
C 37.40625 38.546875 30.59375 43.796875 22.90625 43.796875 
C 12.296875 43.796875 3.296875 34.03125 3.296875 21.296875 
C 3.296875 8.0625 12.703125 -1 22.90625 -1 
C 35.296875 -1 38.40625 10.578125 38.40625 11.6875 
C 38.40625 12.09375 38.296875 12.390625 37.59375 12.390625 
C 36.90625 12.390625 36.796875 12.296875 36.40625 10.984375 
C 33.796875 2.8125 28.09375 0.796875 23.796875 0.796875 
C 17.40625 0.796875 9.703125 6.671875 9.703125 21.390625 
C 9.703125 36.53125 17.09375 42 23 42 
C 26.90625 42 32.703125 40.203125 34.90625 35 
" id="CMR17-99"/>
      <path d="M 15.09375 40 
L 29.09375 40 
L 29.09375 42.578125 
L 15.09375 42.578125 
L 15.09375 61 
L 13.296875 61 
C 13.09375 50.703125 9.59375 41.6875 1.09375 41.6875 
L 1.09375 40 
L 9.796875 40 
L 9.796875 12.046875 
C 9.796875 10.15625 9.796875 -1 21.40625 -1 
C 27.296875 -1 30.703125 4.78125 30.703125 12.140625 
L 30.703125 17.8125 
L 28.90625 17.8125 
L 28.90625 12.234375 
C 28.90625 5.375 26.203125 0.796875 22 0.796875 
C 19.09375 0.796875 15.09375 2.78125 15.09375 11.84375 
z
" id="CMR17-116"/>
      <path d="M 64.296875 31.515625 
C 65.796875 31.515625 67.296875 31.515625 67.296875 33.203125 
C 67.296875 35 65.59375 35 63.90625 35 
L 8 35 
C 6.296875 35 4.59375 35 4.59375 33.203125 
C 4.59375 31.515625 6.09375 31.515625 7.59375 31.515625 
z
M 63.90625 14 
C 65.59375 14 67.296875 14 67.296875 15.796875 
C 67.296875 17.484375 65.796875 17.484375 64.296875 17.484375 
L 7.59375 17.484375 
C 6.09375 17.484375 4.59375 17.484375 4.59375 15.796875 
C 4.59375 14 6.296875 14 8 14 
z
" id="CMR17-61"/>
      <path d="M 26.296875 24.6875 
C 26.296875 31.875 25.59375 44.015625 19.59375 56.859375 
C 14.796875 67.234375 6.59375 74.5 5.40625 74.5 
C 5.09375 74.5 4.703125 74.390625 4.703125 73.890625 
C 4.703125 73.703125 4.796875 73.59375 4.90625 73.390625 
C 9.703125 68.40625 21.90625 55.75 21.90625 24.75 
C 21.90625 -6.359375 9.796875 -19.015625 4.90625 -24.015625 
C 4.796875 -24.203125 4.703125 -24.3125 4.703125 -24.5 
C 4.703125 -25 5.09375 -25 5.40625 -25 
C 6.5 -25 15 -17.625 19.90625 -6.65625 
C 24.90625 4.390625 26.296875 15.140625 26.296875 24.6875 
" id="CMR17-41"/>
      <path d="M 30.90625 42.140625 
C 30.90625 43.953125 30.796875 44.046875 30.203125 44.046875 
C 29.796875 44.046875 29.703125 43.953125 28.5 42.453125 
C 28.203125 42.046875 27.296875 41.03125 27 40.640625 
C 23.796875 44.046875 19.296875 44.046875 17.59375 44.046875 
C 6.5 44.046875 2.5 38.234375 2.5 32.4375 
C 2.5 23.40625 12.703125 21.328125 15.59375 20.703125 
C 21.90625 19.421875 24.09375 19.015625 26.203125 17.203125 
C 27.5 16.015625 29.703125 13.8125 29.703125 10.21875 
C 29.703125 6 27.296875 0.59375 18.09375 0.59375 
C 9.40625 0.59375 6.296875 7.1875 4.5 15.953125 
C 4.203125 17.34375 4.203125 17.453125 3.40625 17.453125 
C 2.59375 17.453125 2.5 17.34375 2.5 15.359375 
L 2.5 0.984375 
C 2.5 -0.796875 2.59375 -0.90625 3.203125 -0.90625 
C 3.703125 -0.90625 3.796875 -0.796875 4.296875 0 
C 4.90625 0.890625 6.40625 3.296875 7 4.3125 
C 9 1.609375 12.5 -1 18.09375 -1 
C 28 -1 33.296875 4.421875 33.296875 12.25 
C 33.296875 17.375 30.59375 20.078125 29.296875 21.28125 
C 26.296875 24.390625 22.796875 25.09375 18.59375 25.890625 
C 13.09375 27.109375 6.09375 28.515625 6.09375 34.640625 
C 6.09375 37.234375 7.5 42.765625 17.59375 42.765625 
C 28.296875 42.765625 28.90625 32.71875 29.09375 29.5 
C 29.203125 29 29.703125 28.890625 30 28.890625 
C 30.90625 28.890625 30.90625 29.203125 30.90625 30.90625 
z
" id="CMR17-115"/>
      <path d="M 38.09375 23 
C 38.5 23.40625 38.5 23.609375 38.5 24.625 
C 38.5 34.96875 33.09375 44 21.703125 44 
C 11.09375 44 2.703125 33.890625 2.703125 21.609375 
C 2.703125 8.609375 12.203125 -1 22.796875 -1 
C 34 -1 38.40625 9.484375 38.40625 11.5625 
C 38.40625 12.25 37.796875 12.25 37.59375 12.25 
C 36.90625 12.25 36.796875 12.046875 36.40625 10.875 
C 34.203125 4.140625 28.703125 0.796875 23.5 0.796875 
C 19.203125 0.796875 14.90625 3.171875 12.203125 7.5 
C 9.09375 12.546875 9.09375 18.375 9.09375 23 
z
M 9.203125 24.5 
C 9.90625 39.140625 17.59375 42.40625 21.59375 42.40625 
C 28.40625 42.40625 33 35.890625 33.09375 24.5 
z
" id="CMR17-101"/>
      <path d="M 16.59375 4.078125 
C 16.59375 6.5625 14.59375 8.15625 12.5 8.15625 
C 10.5 8.15625 8.40625 6.5625 8.40625 4.078125 
C 8.40625 1.59375 10.40625 0 12.5 0 
C 14.5 0 16.59375 1.59375 16.59375 4.078125 
" id="CMR17-46"/>
      <path d="M 41.5 30.203125 
C 41.5 35.296875 40.5 43.59375 28.703125 43.59375 
C 20.796875 43.59375 16.703125 37.5 15.203125 33.5 
L 15.09375 33.5 
L 15.09375 43.59375 
L 3.296875 42.5 
L 3.296875 39.90625 
C 9.203125 39.90625 10.09375 39.296875 10.09375 34.5 
L 10.09375 6.6875 
C 10.09375 2.875 9.703125 2.390625 3.296875 2.390625 
L 3.296875 -0.203125 
C 5.703125 0 10.09375 0 12.703125 0 
C 15.296875 0 19.796875 0 22.203125 -0.203125 
L 22.203125 2.390625 
C 15.796875 2.390625 15.40625 2.78125 15.40625 6.6875 
L 15.40625 25.90625 
C 15.40625 35.109375 21 42 28 42 
C 35.40625 42 36.203125 35.40625 36.203125 30.59375 
L 36.203125 6.6875 
C 36.203125 2.875 35.796875 2.390625 29.40625 2.390625 
L 29.40625 -0.203125 
C 31.796875 0 36.203125 0 38.796875 0 
C 41.40625 0 45.90625 0 48.296875 -0.203125 
L 48.296875 2.390625 
C 41.90625 2.390625 41.5 2.78125 41.5 6.6875 
z
" id="CMR17-110"/>
      <path d="M 43.09375 21.1875 
C 43.09375 34 33.796875 44 22.90625 44 
C 12 44 2.703125 34 2.703125 21.1875 
C 2.703125 8.609375 12 -1 22.90625 -1 
C 33.796875 -1 43.09375 8.609375 43.09375 21.1875 
M 22.90625 0.796875 
C 18.203125 0.796875 14.203125 3.59375 11.90625 7.5 
C 9.40625 11.984375 9.09375 17.59375 9.09375 22 
C 9.09375 26.203125 9.296875 31.40625 11.90625 35.90625 
C 13.90625 39.203125 17.796875 42.40625 22.90625 42.40625 
C 27.40625 42.40625 31.203125 39.90625 33.59375 36.40625 
C 36.703125 31.703125 36.703125 25.109375 36.703125 22 
C 36.703125 18.09375 36.5 12.109375 33.796875 7.296875 
C 31 2.703125 26.703125 0.796875 22.90625 0.796875 
" id="CMR17-111"/>
      <path d="M 15.296875 68.6875 
L 3.40625 67.59375 
L 3.40625 65 
C 9.296875 65 10.203125 64.40625 10.203125 59.640625 
L 10.203125 6.65625 
C 10.203125 2.875 9.796875 2.390625 3.40625 2.390625 
L 3.40625 -0.203125 
C 5.796875 0 10.203125 0 12.703125 0 
C 15.296875 0 19.703125 0 22.09375 -0.203125 
L 22.09375 2.390625 
C 15.703125 2.390625 15.296875 2.78125 15.296875 6.65625 
z
" id="CMR17-108"/>
      <path d="M 39.09375 33.796875 
C 40 36 41.59375 40 47.40625 40 
L 47.40625 42.59375 
C 45.5 42.59375 43 42.59375 41.09375 42.59375 
C 39 42.59375 35.703125 42.59375 33.703125 42.6875 
L 33.703125 40.09375 
C 36.203125 39.890625 37.59375 38.703125 37.59375 36.109375 
C 37.59375 35.203125 37.59375 35 37 33.609375 
L 26 5.890625 
L 14.09375 35.71875 
C 13.5 37.015625 13.5 37.203125 13.5 37.609375 
C 13.5 40 16.796875 40 18.296875 40 
L 18.296875 42.6875 
C 15.90625 42.59375 11.5 42.59375 9 42.59375 
C 6.296875 42.59375 3.203125 42.59375 1 42.6875 
L 1 40 
C 4.796875 40 6.90625 40 8.09375 36.90625 
L 22.59375 0.6875 
C 23.203125 -0.796875 23.296875 -1 24.203125 -1 
C 25.09375 -1 25.203125 -0.796875 25.796875 0.6875 
z
" id="CMR17-118"/>
     </defs>
     <g style="fill:#262626;" transform="translate(39.7475395915 197.170521932)scale(0.09 -0.09)">
      <use transform="scale(0.996264009963)" xlink:href="#CMR17-115"/>
      <use transform="translate(35.8013376352 0.0)scale(0.996264009963)" xlink:href="#CMR17-101"/>
      <use transform="translate(76.286998098 0.0)scale(0.996264009963)" xlink:href="#CMR17-108"/>
      <use transform="translate(101.15805658 0.0)scale(0.996264009963)" xlink:href="#CMR17-101"/>
      <use transform="translate(141.643717043 0.0)scale(0.996264009963)" xlink:href="#CMR17-99"/>
      <use transform="translate(182.129377505 0.0)scale(0.996264009963)" xlink:href="#CMR17-116"/>
      <use transform="translate(217.410145305 0.0)scale(0.996264009963)" xlink:href="#CMR17-105"/>
      <use transform="translate(242.281203787 0.0)scale(0.996264009963)" xlink:href="#CMR17-111"/>
      <use transform="translate(287.971680904 0.0)scale(0.996264009963)" xlink:href="#CMR17-110"/>
      <use transform="translate(368.943017031 0.0)scale(0.996264009963)" xlink:href="#CMR17-99"/>
      <use transform="translate(409.428677494 0.0)scale(0.996264009963)" xlink:href="#CMR17-111"/>
      <use transform="translate(457.721593341 0.0)scale(0.996264009963)" xlink:href="#CMR17-101"/>
      <use transform="translate(498.207253804 0.0)scale(0.996264009963)" xlink:href="#CMR17-14"/>
      <use transform="translate(572.820535662 0.0)scale(0.996264009963)" xlink:href="#CMR17-99"/>
      <use transform="translate(613.306196125 0.0)scale(0.996264009963)" xlink:href="#CMR17-105"/>
      <use transform="translate(638.177254607 0.0)scale(0.996264009963)" xlink:href="#CMR17-101"/>
      <use transform="translate(678.662915069 0.0)scale(0.996264009963)" xlink:href="#CMR17-110"/>
      <use transform="translate(726.955830917 0.0)scale(0.996264009963)" xlink:href="#CMR17-116"/>
      <use transform="translate(792.312565064 0.0)scale(0.996264009963)" xlink:href="#CMR17-101"/>
      <use transform="translate(832.798225526 0.0)scale(0.996264009963)" xlink:href="#CMR17-110"/>
      <use transform="translate(881.091141374 0.0)scale(0.996264009963)" xlink:href="#CMR17-118"/>
      <use transform="translate(929.384057222 0.0)scale(0.996264009963)" xlink:href="#CMR17-46"/>
      <use transform="translate(994.740776167 0.0)scale(0.996264009963)" xlink:href="#CMR17-49"/>
      <use transform="translate(1040.43125328 0.0)scale(0.996264009963)" xlink:href="#CMR17-44"/>
      <use transform="translate(1095.37827811 0.0)scale(0.996264009963)" xlink:href="#CMR17-49"/>
      <use transform="translate(1163.20796221 0.0)scale(0.996264009963)" xlink:href="#CMSY10-0"/>
      <use transform="translate(1262.83463684 0.0)scale(0.996264009963)" xlink:href="#CMMI12-119"/>
      <use transform="translate(1335.2475519 0.0)scale(0.996264009963)" xlink:href="#CMR17-40"/>
      <use transform="translate(1370.5283197 0.0)scale(0.996264009963)" xlink:href="#CMMI12-120"/>
      <use transform="translate(1453.63638796 0.0)scale(0.996264009963)" xlink:href="#CMR17-61"/>
      <use transform="translate(1553.0251851 0.0)scale(0.996264009963)" xlink:href="#CMR17-49"/>
      <use transform="translate(1598.71566221 0.0)scale(0.996264009963)" xlink:href="#CMR17-41"/>
     </g>
    </g>
   </g>
   <g id="matplotlib.axis_2">
    <g id="ytick_1">
     <g id="line2d_57"/>
     <g id="line2d_58"/>
     <g id="text_6">
      <!-- $10^{-3}$ -->
      <g style="fill:#262626;" transform="translate(21.6863760897 179.640676881)scale(0.07497 -0.07497)">
       <use transform="scale(0.996264009963)" xlink:href="#CMR17-49"/>
       <use transform="translate(45.6904771171 0.0)scale(0.996264009963)" xlink:href="#CMR17-48"/>
       <use transform="translate(91.3809542341 36.1536389419)scale(0.697381766617)" xlink:href="#CMSY10-0"/>
       <use transform="translate(145.621947482 36.1536389419)scale(0.697381766617)" xlink:href="#CMR17-51"/>
      </g>
     </g>
    </g>
    <g id="ytick_2">
     <g id="line2d_59"/>
     <g id="line2d_60"/>
     <g id="text_7">
      <!-- $10^{-2}$ -->
      <g style="fill:#262626;" transform="translate(21.6863760897 127.029747014)scale(0.07497 -0.07497)">
       <use transform="scale(0.996264009963)" xlink:href="#CMR17-49"/>
       <use transform="translate(45.6904771171 0.0)scale(0.996264009963)" xlink:href="#CMR17-48"/>
       <use transform="translate(91.3809542341 36.1536389419)scale(0.697381766617)" xlink:href="#CMSY10-0"/>
       <use transform="translate(145.621947482 36.1536389419)scale(0.697381766617)" xlink:href="#CMR17-50"/>
      </g>
     </g>
    </g>
    <g id="ytick_3">
     <g id="line2d_61"/>
     <g id="line2d_62"/>
     <g id="text_8">
      <!-- $10^{-1}$ -->
      <g style="fill:#262626;" transform="translate(21.6863760897 74.4188171473)scale(0.07497 -0.07497)">
       <use transform="scale(0.996264009963)" xlink:href="#CMR17-49"/>
       <use transform="translate(45.6904771171 0.0)scale(0.996264009963)" xlink:href="#CMR17-48"/>
       <use transform="translate(91.3809542341 36.1536389419)scale(0.697381766617)" xlink:href="#CMSY10-0"/>
       <use transform="translate(145.621947482 36.1536389419)scale(0.697381766617)" xlink:href="#CMR17-49"/>
      </g>
     </g>
    </g>
    <g id="ytick_4">
     <g id="line2d_63"/>
     <g id="line2d_64"/>
     <g id="text_9">
      <!-- $10^{0}$ -->
      <g style="fill:#262626;" transform="translate(27.3503929843 21.7746713861)scale(0.07497 -0.07497)">
       <use transform="scale(0.996264009963)" xlink:href="#CMR17-49"/>
       <use transform="translate(45.6904771171 0.0)scale(0.996264009963)" xlink:href="#CMR17-48"/>
       <use transform="translate(91.3809542341 36.1536389419)scale(0.697381766617)" xlink:href="#CMR17-48"/>
      </g>
     </g>
    </g>
    <g id="ytick_5">
     <g id="line2d_65"/>
     <g id="line2d_66"/>
    </g>
    <g id="ytick_6">
     <g id="line2d_67"/>
     <g id="line2d_68"/>
    </g>
    <g id="ytick_7">
     <g id="line2d_69"/>
     <g id="line2d_70"/>
    </g>
    <g id="ytick_8">
     <g id="line2d_71"/>
     <g id="line2d_72"/>
    </g>
    <g id="ytick_9">
     <g id="line2d_73"/>
     <g id="line2d_74"/>
    </g>
    <g id="ytick_10">
     <g id="line2d_75"/>
     <g id="line2d_76"/>
    </g>
    <g id="ytick_11">
     <g id="line2d_77"/>
     <g id="line2d_78"/>
    </g>
    <g id="ytick_12">
     <g id="line2d_79"/>
     <g id="line2d_80"/>
    </g>
    <g id="ytick_13">
     <g id="line2d_81"/>
     <g id="line2d_82"/>
    </g>
    <g id="ytick_14">
     <g id="line2d_83"/>
     <g id="line2d_84"/>
    </g>
    <g id="ytick_15">
     <g id="line2d_85"/>
     <g id="line2d_86"/>
    </g>
    <g id="ytick_16">
     <g id="line2d_87"/>
     <g id="line2d_88"/>
    </g>
    <g id="ytick_17">
     <g id="line2d_89"/>
     <g id="line2d_90"/>
    </g>
    <g id="ytick_18">
     <g id="line2d_91"/>
     <g id="line2d_92"/>
    </g>
    <g id="ytick_19">
     <g id="line2d_93"/>
     <g id="line2d_94"/>
    </g>
    <g id="ytick_20">
     <g id="line2d_95"/>
     <g id="line2d_96"/>
    </g>
    <g id="ytick_21">
     <g id="line2d_97"/>
     <g id="line2d_98"/>
    </g>
    <g id="ytick_22">
     <g id="line2d_99"/>
     <g id="line2d_100"/>
    </g>
    <g id="ytick_23">
     <g id="line2d_101"/>
     <g id="line2d_102"/>
    </g>
    <g id="ytick_24">
     <g id="line2d_103"/>
     <g id="line2d_104"/>
    </g>
    <g id="ytick_25">
     <g id="line2d_105"/>
     <g id="line2d_106"/>
    </g>
    <g id="ytick_26">
     <g id="line2d_107"/>
     <g id="line2d_108"/>
    </g>
    <g id="ytick_27">
     <g id="line2d_109"/>
     <g id="line2d_110"/>
    </g>
    <g id="ytick_28">
     <g id="line2d_111"/>
     <g id="line2d_112"/>
    </g>
    <g id="text_10">
     <!-- selection coefficient env. 2, $1-w(x=2)$ -->
     <g style="fill:#262626;" transform="translate(16.4447820672 180.407616792)rotate(-90.0)scale(0.09 -0.09)">
      <use transform="scale(0.996264009963)" xlink:href="#CMR17-115"/>
      <use transform="translate(35.8013376352 0.0)scale(0.996264009963)" xlink:href="#CMR17-101"/>
      <use transform="translate(76.286998098 0.0)scale(0.996264009963)" xlink:href="#CMR17-108"/>
      <use transform="translate(101.15805658 0.0)scale(0.996264009963)" xlink:href="#CMR17-101"/>
      <use transform="translate(141.643717043 0.0)scale(0.996264009963)" xlink:href="#CMR17-99"/>
      <use transform="translate(182.129377505 0.0)scale(0.996264009963)" xlink:href="#CMR17-116"/>
      <use transform="translate(217.410145305 0.0)scale(0.996264009963)" xlink:href="#CMR17-105"/>
      <use transform="translate(242.281203787 0.0)scale(0.996264009963)" xlink:href="#CMR17-111"/>
      <use transform="translate(287.971680904 0.0)scale(0.996264009963)" xlink:href="#CMR17-110"/>
      <use transform="translate(368.943017031 0.0)scale(0.996264009963)" xlink:href="#CMR17-99"/>
      <use transform="translate(409.428677494 0.0)scale(0.996264009963)" xlink:href="#CMR17-111"/>
      <use transform="translate(457.721593341 0.0)scale(0.996264009963)" xlink:href="#CMR17-101"/>
      <use transform="translate(498.207253804 0.0)scale(0.996264009963)" xlink:href="#CMR17-14"/>
      <use transform="translate(572.820535662 0.0)scale(0.996264009963)" xlink:href="#CMR17-99"/>
      <use transform="translate(613.306196125 0.0)scale(0.996264009963)" xlink:href="#CMR17-105"/>
      <use transform="translate(638.177254607 0.0)scale(0.996264009963)" xlink:href="#CMR17-101"/>
      <use transform="translate(678.662915069 0.0)scale(0.996264009963)" xlink:href="#CMR17-110"/>
      <use transform="translate(726.955830917 0.0)scale(0.996264009963)" xlink:href="#CMR17-116"/>
      <use transform="translate(792.312565064 0.0)scale(0.996264009963)" xlink:href="#CMR17-101"/>
      <use transform="translate(832.798225526 0.0)scale(0.996264009963)" xlink:href="#CMR17-110"/>
      <use transform="translate(881.091141374 0.0)scale(0.996264009963)" xlink:href="#CMR17-118"/>
      <use transform="translate(929.384057222 0.0)scale(0.996264009963)" xlink:href="#CMR17-46"/>
      <use transform="translate(994.740776167 0.0)scale(0.996264009963)" xlink:href="#CMR17-50"/>
      <use transform="translate(1040.43125328 0.0)scale(0.996264009963)" xlink:href="#CMR17-44"/>
      <use transform="translate(1095.37827811 0.0)scale(0.996264009963)" xlink:href="#CMR17-49"/>
      <use transform="translate(1163.20796221 0.0)scale(0.996264009963)" xlink:href="#CMSY10-0"/>
      <use transform="translate(1262.83463684 0.0)scale(0.996264009963)" xlink:href="#CMMI12-119"/>
      <use transform="translate(1335.2475519 0.0)scale(0.996264009963)" xlink:href="#CMR17-40"/>
      <use transform="translate(1370.5283197 0.0)scale(0.996264009963)" xlink:href="#CMMI12-120"/>
      <use transform="translate(1453.63638796 0.0)scale(0.996264009963)" xlink:href="#CMR17-61"/>
      <use transform="translate(1553.0251851 0.0)scale(0.996264009963)" xlink:href="#CMR17-50"/>
      <use transform="translate(1598.71566221 0.0)scale(0.996264009963)" xlink:href="#CMR17-41"/>
     </g>
    </g>
   </g>
   <g id="line2d_113">
    <path clip-path="url(#p6f301ff748)" d="M 42.414938 177.717358 
L 44.009209 176.121435 
L 45.603479 174.525392 
L 47.19775 172.92922 
L 48.79202 171.332912 
L 50.386291 169.736455 
L 51.980562 168.139841 
L 53.574832 166.543056 
L 55.169103 164.94609 
L 56.763373 163.348929 
L 58.357644 161.751558 
L 59.951915 160.153963 
L 61.546185 158.556127 
L 63.140456 156.958033 
L 64.734726 155.359661 
L 66.328997 153.760993 
L 67.923268 152.162006 
L 69.517538 150.562676 
L 71.111809 148.962981 
L 72.706079 147.362891 
L 74.30035 145.762379 
L 75.894621 144.161415 
L 77.488891 142.559964 
L 79.083162 140.957992 
L 80.677432 139.355461 
L 82.271703 137.75233 
L 83.865974 136.148554 
L 85.460244 134.544087 
L 87.054515 132.938878 
L 88.648785 131.332872 
L 90.243056 129.726012 
L 91.837327 128.118235 
L 93.431597 126.509472 
L 95.025868 124.899652 
L 96.620138 123.288697 
L 98.214409 121.676522 
L 99.80868 120.063037 
L 101.40295 118.448146 
L 102.997221 116.831745 
L 104.591491 115.21372 
L 106.185762 113.593951 
L 107.780033 111.972307 
L 109.374303 110.348649 
L 110.968574 108.722825 
L 112.562844 107.094673 
L 114.157115 105.464016 
L 115.751386 103.830665 
L 117.345656 102.194415 
L 118.939927 100.555046 
L 120.534197 98.912318 
L 122.128468 97.265974 
L 123.722739 95.615735 
L 125.317009 93.961299 
L 126.91128 92.302338 
L 128.50555 90.638497 
L 130.099821 88.969393 
L 131.694092 87.294608 
L 133.288362 85.613688 
L 134.882633 83.92614 
L 136.476903 82.231425 
L 138.071174 80.528959 
L 139.665445 78.818102 
L 141.259715 77.098155 
L 142.853986 75.368354 
L 144.448256 73.627859 
L 146.042527 71.87575 
L 147.636798 70.111015 
L 149.231068 68.332536 
L 150.825339 66.539081 
L 152.419609 64.729285 
L 154.01388 62.901632 
L 155.608151 61.054435 
L 157.202421 59.185814 
L 158.796692 57.293659 
L 160.390962 55.375603 
L 161.985233 53.428972 
L 163.579504 51.450741 
L 165.173774 49.437465 
L 166.768045 47.385205 
L 168.362315 45.289428 
L 169.956586 43.14489 
L 171.550857 40.945481 
L 173.145127 38.684024 
L 174.739398 36.352021 
L 176.333668 33.939311 
L 177.927939 31.433608 
L 179.52221 28.819875 
L 181.11648 26.079443 
L 182.710751 23.188739 
L 184.305022 20.117422 
L 185.899292 16.825517 
L 187.493563 13.258864 
L 189.087833 9.34151 
L 190.682104 4.962193 
L 192.276375 -0.051601 
L 192.531036 -1 
" style="fill:none;stroke:#1f77b4;stroke-linecap:round;stroke-width:1.4;"/>
   </g>
   <g id="line2d_114">
    <path clip-path="url(#p6f301ff748)" d="M 42.437798 177.740218 
L 44.033722 176.145948 
L 45.629765 174.551677 
L 47.225936 172.957407 
L 48.822245 171.363136 
L 50.418701 169.768865 
L 52.015316 168.174595 
L 53.6121 166.580324 
L 55.209066 164.986054 
L 56.806228 163.391783 
L 58.403598 161.797512 
L 60.001194 160.203242 
L 61.59903 158.608971 
L 63.197124 157.014701 
L 64.795495 155.42043 
L 66.394164 153.826159 
L 67.993151 152.231889 
L 69.59248 150.637618 
L 71.192176 149.043348 
L 72.792265 147.449077 
L 74.392777 145.854806 
L 75.993742 144.260536 
L 77.595192 142.666265 
L 79.197164 141.071995 
L 80.799695 139.477724 
L 82.402827 137.883453 
L 84.006603 136.289183 
L 85.61107 134.694912 
L 87.216279 133.100642 
L 88.822284 131.506371 
L 90.429144 129.9121 
L 92.036922 128.31783 
L 93.645684 126.723559 
L 95.255504 125.129289 
L 96.86646 123.535018 
L 98.478635 121.940747 
L 100.092119 120.346477 
L 101.70701 118.752206 
L 103.323412 117.157936 
L 104.941437 115.563665 
L 106.561206 113.969394 
L 108.182849 112.375124 
L 109.806507 110.780853 
L 111.432331 109.186583 
L 113.060483 107.592312 
L 114.691141 105.998041 
L 116.324492 104.403771 
L 117.960741 102.8095 
L 119.600111 101.21523 
L 121.242838 99.620959 
L 122.889182 98.026688 
L 124.539421 96.432418 
L 126.193858 94.838147 
L 127.852819 93.243877 
L 129.516659 91.649606 
L 131.185763 90.055335 
L 132.860548 88.461065 
L 134.541468 86.866794 
L 136.229017 85.272524 
L 137.923731 83.678253 
L 139.626197 82.083982 
L 141.337054 80.489712 
L 143.057001 78.895441 
L 144.786803 77.301171 
L 146.527297 75.7069 
L 148.279406 74.112629 
L 150.044142 72.518359 
L 151.82262 70.924088 
L 153.616075 69.329818 
L 155.425872 67.735547 
L 157.253525 66.141276 
L 159.100721 64.547006 
L 160.969342 62.952735 
L 162.861497 61.358465 
L 164.779554 59.764194 
L 166.726184 58.169923 
L 168.704415 56.575653 
L 170.717691 54.981382 
L 172.769952 53.387111 
L 174.865729 51.792841 
L 177.010266 50.19857 
L 179.209676 48.6043 
L 181.471132 47.010029 
L 183.803135 45.415758 
L 186.215846 43.821488 
L 188.721549 42.227217 
L 191.335281 40.632947 
L 194.075714 39.038676 
L 196.966417 37.444405 
L 200.037734 35.850135 
L 203.329639 34.255864 
L 206.896292 32.661594 
L 210.813646 31.067323 
L 215.192963 29.473052 
L 217 28.898456 
" style="fill:none;stroke:#1f77b4;stroke-linecap:round;stroke-width:1.4;"/>
   </g>
   <g id="line2d_115">
    <path clip-path="url(#p6f301ff748)" d="M 42.414938 177.690764 
L 44.009209 176.092918 
L 45.603479 174.494814 
L 47.19775 172.896433 
L 48.79202 171.297755 
L 50.386291 169.698758 
L 51.980562 168.099419 
L 53.574832 166.499713 
L 55.169103 164.899615 
L 56.763373 163.299095 
L 58.357644 161.698123 
L 59.951915 160.096666 
L 61.546185 158.49469 
L 63.140456 156.892155 
L 64.734726 155.289023 
L 66.328997 153.68525 
L 67.923268 152.080789 
L 69.517538 150.475591 
L 71.111809 148.869601 
L 72.706079 147.262763 
L 74.30035 145.655016 
L 75.894621 144.046292 
L 77.488891 142.436522 
L 79.083162 140.825629 
L 80.677432 139.213533 
L 82.271703 137.600144 
L 83.865974 135.98537 
L 85.460244 134.36911 
L 87.054515 132.751256 
L 88.648785 131.131692 
L 90.243056 129.510293 
L 91.837327 127.886925 
L 93.431597 126.261446 
L 95.025868 124.633702 
L 96.620138 123.003526 
L 98.214409 121.370742 
L 99.80868 119.735159 
L 101.40295 118.096573 
L 102.997221 116.454762 
L 104.591491 114.809493 
L 106.185762 113.16051 
L 107.780033 111.507541 
L 109.374303 109.850293 
L 110.968574 108.188451 
L 112.562844 106.521676 
L 114.157115 104.849606 
L 115.751386 103.171847 
L 117.345656 101.487979 
L 118.939927 99.797548 
L 120.534197 98.100068 
L 122.128468 96.395011 
L 123.722739 94.681813 
L 125.317009 92.959863 
L 126.91128 91.228505 
L 128.50555 89.487031 
L 130.099821 87.734674 
L 131.694092 85.970611 
L 133.288362 84.19395 
L 134.882633 82.403727 
L 136.476903 80.598902 
L 138.071174 78.778347 
L 139.665445 76.94084 
L 141.259715 75.085059 
L 142.853986 73.209567 
L 144.448256 71.312805 
L 146.042527 69.393075 
L 147.636798 67.448531 
L 149.231068 65.477158 
L 150.825339 63.476755 
L 152.419609 61.444916 
L 154.01388 59.379001 
L 155.608151 57.276112 
L 157.202421 55.133056 
L 158.796692 52.94631 
L 160.390962 50.711971 
L 161.985233 48.425705 
L 163.579504 46.082681 
L 165.173774 43.677489 
L 166.768045 41.20405 
L 168.362315 38.655492 
L 169.956586 36.024009 
L 171.550857 33.300673 
L 173.145127 30.475201 
L 174.739398 27.535657 
L 176.333668 24.468056 
L 177.927939 21.25584 
L 179.52221 17.879172 
L 181.11648 14.313951 
L 182.710751 10.530426 
L 184.305022 6.49116 
L 185.899292 2.147963 
L 186.964632 -1 
" style="fill:none;stroke:#ff7f0e;stroke-linecap:round;stroke-width:1.4;"/>
   </g>
   <g id="line2d_116">
    <path clip-path="url(#p6f301ff748)" d="M 42.464393 177.740218 
L 44.062238 176.145948 
L 45.660342 174.551677 
L 47.258723 172.957407 
L 48.857402 171.363136 
L 50.456399 169.768865 
L 52.055738 168.174595 
L 53.655443 166.580324 
L 55.255541 164.986054 
L 56.856061 163.391783 
L 58.457033 161.797512 
L 60.05849 160.203242 
L 61.660467 158.608971 
L 63.263001 157.014701 
L 64.866133 155.42043 
L 66.469906 153.826159 
L 68.074367 152.231889 
L 69.679566 150.637618 
L 71.285555 149.043348 
L 72.892393 147.449077 
L 74.500141 145.854806 
L 76.108864 144.260536 
L 77.718634 142.666265 
L 79.329527 141.071995 
L 80.941624 139.477724 
L 82.555012 137.883453 
L 84.169786 136.289183 
L 85.786046 134.694912 
L 87.4039 133.100642 
L 89.023465 131.506371 
L 90.644864 129.9121 
L 92.268231 128.31783 
L 93.89371 126.723559 
L 95.521455 125.129289 
L 97.15163 123.535018 
L 98.784414 121.940747 
L 100.419997 120.346477 
L 102.058584 118.752206 
L 103.700394 117.157936 
L 105.345664 115.563665 
L 106.994647 113.969394 
L 108.647616 112.375124 
L 110.304864 110.780853 
L 111.966706 109.186583 
L 113.63348 107.592312 
L 115.305551 105.998041 
L 116.983309 104.403771 
L 118.667177 102.8095 
L 120.357608 101.21523 
L 122.055089 99.620959 
L 123.760146 98.026688 
L 125.473344 96.432418 
L 127.195293 94.838147 
L 128.926651 93.243877 
L 130.668126 91.649606 
L 132.420482 90.055335 
L 134.184545 88.461065 
L 135.961206 86.866794 
L 137.751429 85.272524 
L 139.556254 83.678253 
L 141.37681 82.083982 
L 143.214316 80.489712 
L 145.070097 78.895441 
L 146.945589 77.301171 
L 148.842352 75.7069 
L 150.762081 74.112629 
L 152.706625 72.518359 
L 154.677998 70.924088 
L 156.678401 69.329818 
L 158.71024 67.735547 
L 160.776155 66.141276 
L 162.879044 64.547006 
L 165.0221 62.952735 
L 167.208846 61.358465 
L 169.443185 59.764194 
L 171.729451 58.169923 
L 174.072476 56.575653 
L 176.477667 54.981382 
L 178.951107 53.387111 
L 181.499664 51.792841 
L 184.131147 50.19857 
L 186.854484 48.6043 
L 189.679955 47.010029 
L 192.619499 45.415758 
L 195.6871 43.821488 
L 198.899316 42.227217 
L 202.275985 40.632947 
L 205.841205 39.038676 
L 209.62473 37.444405 
L 213.663996 35.850135 
L 217 34.625578 
" style="fill:none;stroke:#ff7f0e;stroke-linecap:round;stroke-width:1.4;"/>
   </g>
   <g id="line2d_117">
    <path clip-path="url(#p6f301ff748)" d="M 42.414938 177.510958 
L 44.009209 175.900118 
L 45.603479 174.288081 
L 47.19775 172.67476 
L 48.79202 171.060061 
L 50.386291 169.443886 
L 51.980562 167.826128 
L 53.574832 166.206672 
L 55.169103 164.585395 
L 56.763373 162.962166 
L 58.357644 161.336843 
L 59.951915 159.709276 
L 61.546185 158.079301 
L 63.140456 156.446746 
L 64.734726 154.811422 
L 66.328997 153.173129 
L 67.923268 151.531653 
L 69.517538 149.886764 
L 71.111809 148.238214 
L 72.706079 146.585738 
L 74.30035 144.929051 
L 75.894621 143.26785 
L 77.488891 141.601805 
L 79.083162 139.930567 
L 80.677432 138.253759 
L 82.271703 136.570976 
L 83.865974 134.881785 
L 85.460244 133.18572 
L 87.054515 131.482282 
L 88.648785 129.770933 
L 90.243056 128.051098 
L 91.837327 126.322159 
L 93.431597 124.58345 
L 95.025868 122.834258 
L 96.620138 121.073817 
L 98.214409 119.3013 
L 99.80868 117.515821 
L 101.40295 115.716426 
L 102.997221 113.902087 
L 104.591491 112.071699 
L 106.185762 110.224069 
L 107.780033 108.357911 
L 109.374303 106.471838 
L 110.968574 104.564351 
L 112.562844 102.633829 
L 114.157115 100.678518 
L 115.751386 98.696514 
L 117.345656 96.685752 
L 118.939927 94.643984 
L 120.534197 92.56876 
L 122.128468 90.457405 
L 123.722739 88.306987 
L 125.317009 86.114286 
L 126.91128 83.875751 
L 128.50555 81.587455 
L 130.099821 79.245034 
L 131.694092 76.843613 
L 133.288362 74.37772 
L 134.882633 71.841173 
L 136.476903 69.226938 
L 138.071174 66.526951 
L 139.665445 63.731882 
L 141.259715 60.830829 
L 142.853986 57.810907 
L 144.448256 54.656693 
L 146.042527 51.349445 
L 147.636798 47.866006 
L 149.231068 44.177198 
L 150.825339 40.245395 
L 152.419609 36.020742 
L 154.01388 31.434956 
L 155.608151 26.390601 
L 157.202421 20.741176 
L 158.796692 14.250567 
L 160.390962 6.499264 
L 161.601462 -1 
" style="fill:none;stroke:#2ca02c;stroke-linecap:round;stroke-width:1.4;"/>
   </g>
   <g id="line2d_118">
    <path clip-path="url(#p6f301ff748)" d="M 42.644198 177.740218 
L 44.255038 176.145948 
L 45.867075 174.551677 
L 47.480397 172.957407 
L 49.095095 171.363136 
L 50.71127 169.768865 
L 52.329029 168.174595 
L 53.948485 166.580324 
L 55.569762 164.986054 
L 57.192991 163.391783 
L 58.818313 161.797512 
L 60.44588 160.203242 
L 62.075855 158.608971 
L 63.708411 157.014701 
L 65.343735 155.42043 
L 66.982027 153.826159 
L 68.623503 152.231889 
L 70.268392 150.637618 
L 71.916943 149.043348 
L 73.569419 147.449077 
L 75.226105 145.854806 
L 76.887307 144.260536 
L 78.553351 142.666265 
L 80.224589 141.071995 
L 81.901397 139.477724 
L 83.58418 137.883453 
L 85.273371 136.289183 
L 86.969436 134.694912 
L 88.672875 133.100642 
L 90.384224 131.506371 
L 92.104058 129.9121 
L 93.832998 128.31783 
L 95.571706 126.723559 
L 97.320898 125.129289 
L 99.08134 123.535018 
L 100.853857 121.940747 
L 102.639335 120.346477 
L 104.43873 118.752206 
L 106.253069 117.157936 
L 108.083457 115.563665 
L 109.931088 113.969394 
L 111.797246 112.375124 
L 113.683319 110.780853 
L 115.590806 109.186583 
L 117.521327 107.592312 
L 119.476639 105.998041 
L 121.458643 104.403771 
L 123.469405 102.8095 
L 125.511173 101.21523 
L 127.586396 99.620959 
L 129.697751 98.026688 
L 131.848169 96.432418 
L 134.040871 94.838147 
L 136.279405 93.243877 
L 138.567701 91.649606 
L 140.910122 90.055335 
L 143.311544 88.461065 
L 145.777437 86.866794 
L 148.313984 85.272524 
L 150.928219 83.678253 
L 153.628206 82.083982 
L 156.423275 80.489712 
L 159.324328 78.895441 
L 162.344249 77.301171 
L 165.498464 75.7069 
L 168.805712 74.112629 
L 172.28915 72.518359 
L 175.977959 70.924088 
L 179.909762 69.329818 
L 184.134414 67.735547 
L 188.7202 66.141276 
L 193.764555 64.547006 
L 199.41398 62.952735 
L 205.90459 61.358465 
L 213.655892 59.764194 
L 217 59.224402 
" style="fill:none;stroke:#2ca02c;stroke-linecap:round;stroke-width:1.4;"/>
   </g>
   <g id="line2d_119">
    <path clip-path="url(#p6f301ff748)" d="M 42.414938 176.825958 
L 44.009209 175.165597 
L 45.603479 173.500456 
L 47.19775 171.830188 
L 48.79202 170.154421 
L 50.386291 168.472756 
L 51.980562 166.784766 
L 53.574832 165.089991 
L 55.169103 163.387937 
L 56.763373 161.678075 
L 58.357644 159.959837 
L 59.951915 158.232611 
L 61.546185 156.495743 
L 63.140456 154.748526 
L 64.734726 152.990203 
L 66.328997 151.219959 
L 67.923268 149.436918 
L 69.517538 147.640135 
L 71.111809 145.828594 
L 72.706079 144.001201 
L 74.30035 142.156774 
L 75.894621 140.294038 
L 77.488891 138.411618 
L 79.083162 136.508022 
L 80.677432 134.581639 
L 82.271703 132.630719 
L 83.865974 130.653363 
L 85.460244 128.647502 
L 87.054515 126.610882 
L 88.648785 124.541039 
L 90.243056 122.43527 
L 91.837327 120.290603 
L 93.431597 118.103761 
L 95.025868 115.871109 
L 96.620138 113.588606 
L 98.214409 111.251729 
L 99.80868 108.85539 
L 101.40295 106.39383 
L 102.997221 103.860478 
L 104.591491 101.247781 
L 106.185762 98.546974 
L 107.780033 95.747783 
L 109.374303 92.838023 
L 110.968574 89.803053 
L 112.562844 86.625019 
L 114.157115 83.281775 
L 115.751386 79.745307 
L 117.345656 75.979364 
L 118.939927 71.93574 
L 120.534197 67.548207 
L 122.128468 62.722025 
L 123.722739 57.314502 
L 125.317009 51.095537 
L 126.91128 43.65681 
L 128.50555 34.160185 
L 130.099821 20.384267 
L 131.264542 -1 
" style="fill:none;stroke:#d62728;stroke-linecap:round;stroke-width:1.4;"/>
   </g>
   <g id="line2d_120">
    <path clip-path="url(#p6f301ff748)" d="M 43.329198 177.740218 
L 44.989559 176.145948 
L 46.6547 174.551677 
L 48.324968 172.957407 
L 50.000735 171.363136 
L 51.6824 169.768865 
L 53.37039 168.174595 
L 55.065166 166.580324 
L 56.76722 164.986054 
L 58.477081 163.391783 
L 60.19532 161.797512 
L 61.922545 160.203242 
L 63.659414 158.608971 
L 65.40663 157.014701 
L 67.164953 155.42043 
L 68.935197 153.826159 
L 70.718239 152.231889 
L 72.515022 150.637618 
L 74.326562 149.043348 
L 76.153956 147.449077 
L 77.998383 145.854806 
L 79.861118 144.260536 
L 81.743539 142.666265 
L 83.647134 141.071995 
L 85.573517 139.477724 
L 87.524437 137.883453 
L 89.501794 136.289183 
L 91.507654 134.694912 
L 93.544274 133.100642 
L 95.614117 131.506371 
L 97.719887 129.9121 
L 99.864553 128.31783 
L 102.051396 126.723559 
L 104.284047 125.129289 
L 106.56655 123.535018 
L 108.903427 121.940747 
L 111.299766 120.346477 
L 113.761326 118.752206 
L 116.294678 117.157936 
L 118.907375 115.563665 
L 121.608182 113.969394 
L 124.407373 112.375124 
L 127.317133 110.780853 
L 130.352103 109.186583 
L 133.530138 107.592312 
L 136.873382 105.998041 
L 140.409849 104.403771 
L 144.175792 102.8095 
L 148.219416 101.21523 
L 152.606949 99.620959 
L 157.433132 98.026688 
L 162.840655 96.432418 
L 169.05962 94.838147 
L 176.498347 93.243877 
L 185.994971 91.649606 
L 199.770889 90.055335 
L 217 89.11693 
" style="fill:none;stroke:#d62728;stroke-linecap:round;stroke-width:1.4;"/>
   </g>
   <g id="patch_3">
    <path d="M 42.414938 177.740218 
L 200.247728 177.740218 
" style="fill:none;stroke:#262626;stroke-linecap:square;stroke-linejoin:miter;"/>
   </g>
   <g id="patch_4">
    <path d="M 42.414938 177.740218 
L 42.414938 19.907429 
" style="fill:none;stroke:#262626;stroke-linecap:square;stroke-linejoin:miter;"/>
   </g>
   <g id="legend_1">
    <g id="text_11">
     <!-- characteristic time of  -->
     <defs>
      <path d="M 41.5 30.203125 
C 41.5 35.296875 40.5 43.59375 28.703125 43.59375 
C 20.5 43.59375 16.5 37 15.296875 33.703125 
L 15.203125 33.703125 
L 15.203125 68.6875 
L 3.296875 67.59375 
L 3.296875 65 
C 9.203125 65 10.09375 64.40625 10.09375 59.640625 
L 10.09375 6.65625 
C 10.09375 2.875 9.703125 2.390625 3.296875 2.390625 
L 3.296875 -0.203125 
C 5.703125 0 10.09375 0 12.703125 0 
C 15.296875 0 19.796875 0 22.203125 -0.203125 
L 22.203125 2.390625 
C 15.796875 2.390625 15.40625 2.78125 15.40625 6.6875 
L 15.40625 25.90625 
C 15.40625 35.109375 21 42 28 42 
C 35.40625 42 36.203125 35.40625 36.203125 30.59375 
L 36.203125 6.6875 
C 36.203125 2.875 35.796875 2.390625 29.40625 2.390625 
L 29.40625 -0.203125 
C 31.796875 0 36.203125 0 38.796875 0 
C 41.40625 0 45.90625 0 48.296875 -0.203125 
L 48.296875 2.390625 
C 41.90625 2.390625 41.5 2.78125 41.5 6.6875 
z
" id="CMR17-104"/>
      <path d="M 15 23.390625 
C 15 33 19.09375 42 26.59375 42 
C 27.296875 42 28 41.90625 28.703125 41.59375 
C 28.703125 41.59375 26.5 40.890625 26.5 38.3125 
C 26.5 35.90625 28.40625 34.90625 29.90625 34.90625 
C 31.09375 34.90625 33.296875 35.609375 33.296875 38.40625 
C 33.296875 41.609375 30.09375 43.59375 26.703125 43.59375 
C 19.09375 43.59375 15.796875 36.203125 14.796875 32.703125 
L 14.703125 32.703125 
L 14.703125 43.59375 
L 3.09375 42.5 
L 3.09375 39.90625 
C 9 39.90625 9.90625 39.296875 9.90625 34.5 
L 9.90625 6.6875 
C 9.90625 2.875 9.5 2.390625 3.09375 2.390625 
L 3.09375 -0.203125 
C 5.5 0 10.09375 0 12.703125 0 
C 15.59375 0 20.703125 0 23.40625 -0.203125 
L 23.40625 2.390625 
C 16.203125 2.390625 15 2.390625 15 6.875 
z
" id="CMR17-114"/>
      <path d="M 36 25.828125 
C 36 32.375 36 35.84375 31.796875 39.734375 
C 28.09375 43 23.796875 44 20.40625 44 
C 12.5 44 6.796875 37.609375 6.796875 30.796875 
C 6.796875 27 9.796875 27 10.40625 27 
C 11.703125 27 14 27.78125 14 30.53125 
C 14 33 12.09375 34.078125 10.40625 34.078125 
C 10 34.078125 9.5 33.96875 9.203125 33.875 
C 11.296875 40.5 16.703125 42.40625 20.203125 42.40625 
C 25.203125 42.40625 30.703125 37.953125 30.703125 29.453125 
L 30.703125 25 
C 24.796875 25 17.703125 24.203125 12.09375 21.203125 
C 5.796875 17.703125 4 12.703125 4 8.90625 
C 4 1.203125 13 -1 18.296875 -1 
C 23.796875 -1 28.90625 2.171875 31.09375 7.984375 
C 31.296875 3.640625 34.09375 -0.28125 38.5 -0.28125 
C 40.59375 -0.28125 45.90625 1.09375 45.90625 8.859375 
L 45.90625 14.375 
L 44.09375 14.375 
L 44.09375 8.78125 
C 44.09375 2.78125 41.40625 2 40.09375 2 
C 36 2 36 7.15625 36 11.53125 
z
M 30.703125 13.59375 
C 30.703125 4.953125 24.5 0.59375 19 0.59375 
C 14 0.59375 10.09375 4.296875 10.09375 8.90625 
C 10.09375 11.890625 11.40625 17.1875 17.203125 20.390625 
C 22 23.09375 27.5 23.5 30.703125 23.5 
z
" id="CMR17-97"/>
      <path d="M 67.59375 30.203125 
C 67.59375 35.1875 66.703125 43.59375 54.796875 43.59375 
C 48 43.59375 43.296875 39 41.5 33.609375 
L 41.40625 33.609375 
C 40.203125 41.8125 34.296875 43.59375 28.703125 43.59375 
C 20.796875 43.59375 16.703125 37.5 15.203125 33.5 
L 15.09375 33.5 
L 15.09375 43.59375 
L 3.296875 42.5 
L 3.296875 39.90625 
C 9.203125 39.90625 10.09375 39.296875 10.09375 34.5 
L 10.09375 6.6875 
C 10.09375 2.875 9.703125 2.390625 3.296875 2.390625 
L 3.296875 -0.203125 
C 5.703125 0 10.09375 0 12.703125 0 
C 15.296875 0 19.796875 0 22.203125 -0.203125 
L 22.203125 2.390625 
C 15.796875 2.390625 15.40625 2.78125 15.40625 6.6875 
L 15.40625 25.90625 
C 15.40625 35.109375 21 42 28 42 
C 35.40625 42 36.203125 35.40625 36.203125 30.59375 
L 36.203125 6.6875 
C 36.203125 2.875 35.796875 2.390625 29.40625 2.390625 
L 29.40625 -0.203125 
C 31.796875 0 36.203125 0 38.796875 0 
C 41.40625 0 45.90625 0 48.296875 -0.203125 
L 48.296875 2.390625 
C 41.90625 2.390625 41.5 2.78125 41.5 6.6875 
L 41.5 25.90625 
C 41.5 35.109375 47.09375 42 54.09375 42 
C 61.5 42 62.296875 35.40625 62.296875 30.59375 
L 62.296875 6.6875 
C 62.296875 2.875 61.90625 2.390625 55.5 2.390625 
L 55.5 -0.203125 
C 57.90625 0 62.296875 0 64.90625 0 
C 67.5 0 72 0 74.40625 -0.203125 
L 74.40625 2.390625 
C 68 2.390625 67.59375 2.78125 67.59375 6.6875 
z
" id="CMR17-109"/>
      <path d="M 15.296875 40 
L 26.703125 40 
L 26.703125 42.578125 
L 15.09375 42.578125 
L 15.09375 54.59375 
C 15.09375 62.84375 19.296875 68 23.59375 68 
C 24.90625 68 26.40625 67.609375 27.40625 66.90625 
C 26.59375 66.703125 24.5 66.015625 24.5 63.53125 
C 24.5 60.953125 26.5 60.15625 27.90625 60.15625 
C 29.296875 60.15625 31.296875 60.953125 31.296875 63.546875 
C 31.296875 67.3125 27.703125 69.59375 23.703125 69.59375 
C 18 69.59375 10.203125 64.9375 10.203125 54.390625 
L 10.203125 42.578125 
L 2.203125 42.578125 
L 2.203125 40 
L 10.203125 40 
L 10.203125 6.671875 
C 10.203125 2.875 9.796875 2.390625 3.40625 2.390625 
L 3.40625 -0.203125 
C 5.796875 0 10.40625 0 13 0 
C 15.90625 0 21 0 23.703125 -0.203125 
L 23.703125 2.390625 
C 16.5 2.390625 15.296875 2.390625 15.296875 6.859375 
z
" id="CMR17-102"/>
     </defs>
     <g style="fill:#262626;" transform="translate(105.754219662 133.594390311)scale(0.09 -0.09)">
      <use transform="scale(0.996264009963)" xlink:href="#CMR17-99"/>
      <use transform="translate(37.8832065302 0.0)scale(0.996264009963)" xlink:href="#CMR17-104"/>
      <use transform="translate(88.7785763105 0.0)scale(0.996264009963)" xlink:href="#CMR17-97"/>
      <use transform="translate(134.469053428 0.0)scale(0.996264009963)" xlink:href="#CMR17-114"/>
      <use transform="translate(169.749821227 0.0)scale(0.996264009963)" xlink:href="#CMR17-97"/>
      <use transform="translate(215.440298344 0.0)scale(0.996264009963)" xlink:href="#CMR17-99"/>
      <use transform="translate(255.925958807 0.0)scale(0.996264009963)" xlink:href="#CMR17-116"/>
      <use transform="translate(291.206726606 0.0)scale(0.996264009963)" xlink:href="#CMR17-101"/>
      <use transform="translate(331.692387069 0.0)scale(0.996264009963)" xlink:href="#CMR17-114"/>
      <use transform="translate(366.973154868 0.0)scale(0.996264009963)" xlink:href="#CMR17-105"/>
      <use transform="translate(391.84421335 0.0)scale(0.996264009963)" xlink:href="#CMR17-115"/>
      <use transform="translate(427.645550986 0.0)scale(0.996264009963)" xlink:href="#CMR17-116"/>
      <use transform="translate(462.926318785 0.0)scale(0.996264009963)" xlink:href="#CMR17-105"/>
      <use transform="translate(487.797377267 0.0)scale(0.996264009963)" xlink:href="#CMR17-99"/>
      <use transform="translate(558.359004077 0.0)scale(0.996264009963)" xlink:href="#CMR17-116"/>
      <use transform="translate(593.639771876 0.0)scale(0.996264009963)" xlink:href="#CMR17-105"/>
      <use transform="translate(618.510830358 0.0)scale(0.996264009963)" xlink:href="#CMR17-109"/>
      <use transform="translate(695.430420226 0.0)scale(0.996264009963)" xlink:href="#CMR17-101"/>
      <use transform="translate(765.992047036 0.0)scale(0.996264009963)" xlink:href="#CMR17-111"/>
      <use transform="translate(811.682524153 0.0)scale(0.996264009963)" xlink:href="#CMR17-102"/>
     </g>
     <!--  env. state changes, $t_c$ -->
     <defs>
      <path d="M 20.09375 40.09375 
L 29.296875 40.09375 
C 31.203125 40.09375 32.203125 40.09375 32.203125 41.890625 
C 32.203125 43 31.59375 43 29.59375 43 
L 20.796875 43 
L 24.5 57.6875 
C 24.90625 59.078125 24.90625 59.28125 24.90625 60 
C 24.90625 61.609375 23.59375 62.5 22.296875 62.5 
C 21.5 62.5 19.203125 62.203125 18.40625 58.984375 
L 14.5 43 
L 5.09375 43 
C 3.09375 43 2.203125 43 2.203125 41.09375 
C 2.203125 40.09375 2.90625 40.09375 4.796875 40.09375 
L 13.703125 40.09375 
L 7.09375 13.765625 
C 6.296875 10.28125 6 9.28125 6 7.984375 
C 6 3.296875 9.296875 -1 14.90625 -1 
C 25 -1 30.40625 13.5625 30.40625 14.25 
C 30.40625 14.859375 30 15.15625 29.40625 15.15625 
C 29.203125 15.15625 28.796875 15.15625 28.59375 14.75 
C 28.5 14.65625 28.40625 14.546875 27.703125 12.953125 
C 25.59375 7.984375 21 1 15.203125 1 
C 12.203125 1 12 3.5 12 5.6875 
C 12 5.78125 12 7.6875 12.296875 8.875 
z
" id="CMMI12-116"/>
      <path d="M 39.09375 37.984375 
C 37.203125 37.984375 36.296875 37.984375 34.90625 36.796875 
C 34.296875 36.296875 33.203125 34.796875 33.203125 33.203125 
C 33.203125 31.203125 34.703125 30 36.59375 30 
C 39 30 41.703125 31.9375 41.703125 35.8125 
C 41.703125 40.4375 37.09375 44 30.203125 44 
C 17.09375 44 4 29.734375 4 15.5625 
C 4 6.890625 9.40625 -1 19.59375 -1 
C 33.203125 -1 41.796875 9.71875 41.796875 11.03125 
C 41.796875 11.625 41.203125 12.125 40.796875 12.125 
C 40.5 12.125 40.40625 12.03125 39.5 11.140625 
C 33.09375 2.53125 23.59375 1 19.796875 1 
C 12.90625 1 10.703125 6.96875 10.703125 11.9375 
C 10.703125 15.4375 12.40625 25.078125 16 31.859375 
C 18.59375 36.53125 24 41.90625 30.296875 41.90625 
C 31.59375 41.90625 37.09375 41.90625 39.09375 37.984375 
" id="CMMI12-99"/>
      <path d="M 11.09375 18.1875 
C 13 16.6875 16.296875 15 20.296875 15 
C 28.203125 15 35 21.203125 35 29.5 
C 35 32.09375 34.203125 36.09375 31.203125 39.203125 
C 34 42.0625 38.09375 43 40.40625 43 
C 40.796875 43 41.40625 43 41.90625 42.71875 
C 41.5 42.625 40.59375 42.234375 40.59375 40.703125 
C 40.59375 39.484375 41.5 38.609375 42.796875 38.609375 
C 44.296875 38.609375 45.09375 39.578125 45.09375 40.84375 
C 45.09375 42.671875 43.59375 44.59375 40.40625 44.59375 
C 36.40625 44.59375 32.90625 42.78125 30.09375 40.3125 
C 27.09375 43.015625 23.5 44 20.296875 44 
C 12.40625 44 5.59375 37.796875 5.59375 29.5 
C 5.59375 23.78125 8.90625 20.1875 9.90625 19.1875 
C 6.90625 15.6875 6.90625 11.609375 6.90625 11.109375 
C 6.90625 8.515625 7.90625 4.71875 11.296875 2.625 
C 6.09375 1.328125 2 -2.640625 2 -7.59375 
C 2 -14.734375 11.5 -20 22.90625 -20 
C 33.90625 -20 43.796875 -14.9375 43.796875 -7.484375 
C 43.796875 6 29 6 21.296875 6 
C 19 6 14.90625 6 14.40625 6.109375 
C 11.296875 6.609375 9.203125 9.40625 9.203125 12.90625 
C 9.203125 13.796875 9.203125 16 11.09375 18.1875 
M 20.296875 16.6875 
C 11.5 16.6875 11.5 27.5 11.5 29.515625 
C 11.5 31.5 11.5 42.3125 20.296875 42.3125 
C 29.09375 42.3125 29.09375 31.5 29.09375 29.515625 
C 29.09375 27.5 29.09375 16.6875 20.296875 16.6875 
M 22.90625 -18.296875 
C 12.90625 -18.296875 6 -13.046875 6 -7.59375 
C 6 -4.515625 7.703125 -1.640625 9.90625 -0.0625 
C 12.40625 1.625 13.40625 1.625 20.203125 1.625 
C 28.40625 1.625 39.796875 1.625 39.796875 -7.59375 
C 39.796875 -13.046875 32.90625 -18.296875 22.90625 -18.296875 
" id="CMR17-103"/>
     </defs>
     <g style="fill:#262626;" transform="translate(105.754219662 142.809832403)scale(0.09 -0.09)">
      <use transform="translate(0.0 14.9439145441)scale(0.996264009963)" xlink:href="#CMR17-101"/>
      <use transform="translate(40.4856604627 14.9439145441)scale(0.996264009963)" xlink:href="#CMR17-110"/>
      <use transform="translate(88.7785763105 14.9439145441)scale(0.996264009963)" xlink:href="#CMR17-118"/>
      <use transform="translate(137.071492158 14.9439145441)scale(0.996264009963)" xlink:href="#CMR17-46"/>
      <use transform="translate(202.428211103 14.9439145441)scale(0.996264009963)" xlink:href="#CMR17-115"/>
      <use transform="translate(238.229548738 14.9439145441)scale(0.996264009963)" xlink:href="#CMR17-116"/>
      <use transform="translate(273.510316538 14.9439145441)scale(0.996264009963)" xlink:href="#CMR17-97"/>
      <use transform="translate(319.200793655 14.9439145441)scale(0.996264009963)" xlink:href="#CMR17-116"/>
      <use transform="translate(354.481561454 14.9439145441)scale(0.996264009963)" xlink:href="#CMR17-101"/>
      <use transform="translate(425.043188264 14.9439145441)scale(0.996264009963)" xlink:href="#CMR17-99"/>
      <use transform="translate(462.926394794 14.9439145441)scale(0.996264009963)" xlink:href="#CMR17-104"/>
      <use transform="translate(513.821764574 14.9439145441)scale(0.996264009963)" xlink:href="#CMR17-97"/>
      <use transform="translate(559.512241691 14.9439145441)scale(0.996264009963)" xlink:href="#CMR17-110"/>
      <use transform="translate(610.407611472 14.9439145441)scale(0.996264009963)" xlink:href="#CMR17-103"/>
      <use transform="translate(656.098088589 14.9439145441)scale(0.996264009963)" xlink:href="#CMR17-101"/>
      <use transform="translate(696.583749051 14.9439145441)scale(0.996264009963)" xlink:href="#CMR17-115"/>
      <use transform="translate(732.385086687 14.9439145441)scale(0.996264009963)" xlink:href="#CMR17-44"/>
      <use transform="translate(787.332111515 14.9439145441)scale(0.996264009963)" xlink:href="#CMMI12-116"/>
      <use transform="translate(822.558441732 0.0)scale(0.697381766617)" xlink:href="#CMMI12-99"/>
     </g>
    </g>
    <g id="line2d_121">
     <path d="M 107.839438 152.203294 
L 125.839438 152.203294 
" style="fill:none;stroke:#1f77b4;stroke-linecap:round;stroke-width:1.4;"/>
    </g>
    <g id="line2d_122"/>
    <g id="text_12">
     <!-- 0 -->
     <g style="fill:#262626;" transform="translate(133.039437631 155.353294421)scale(0.09 -0.09)">
      <use transform="scale(0.996264009963)" xlink:href="#CMR17-48"/>
     </g>
    </g>
    <g id="line2d_123">
     <path d="M 107.839438 164.746756 
L 125.839438 164.746756 
" style="fill:none;stroke:#ff7f0e;stroke-linecap:round;stroke-width:1.4;"/>
    </g>
    <g id="line2d_124"/>
    <g id="text_13">
     <!-- 1 -->
     <g style="fill:#262626;" transform="translate(133.039437631 167.896756438)scale(0.09 -0.09)">
      <use transform="scale(0.996264009963)" xlink:href="#CMR17-49"/>
     </g>
    </g>
    <g id="line2d_125">
     <path d="M 155.647128 152.203294 
L 173.647128 152.203294 
" style="fill:none;stroke:#2ca02c;stroke-linecap:round;stroke-width:1.4;"/>
    </g>
    <g id="line2d_126"/>
    <g id="text_14">
     <!-- 5 -->
     <defs>
      <path d="M 11.40625 57.6875 
C 12.40625 57.28125 16.5 56 20.703125 56 
C 30 56 35.09375 61.109375 38 64.0625 
C 38 64.953125 38 65.5 37.40625 65.5 
C 37.296875 65.5 37.09375 65.5 36.296875 65.046875 
C 32.796875 63.40625 28.703125 62.078125 23.703125 62.078125 
C 20.703125 62.078125 16.203125 62.484375 11.296875 64.671875 
C 10.203125 65.171875 10 65.171875 9.90625 65.171875 
C 9.40625 65.171875 9.296875 65.0625 9.296875 63.078125 
L 9.296875 34.421875 
C 9.296875 32.640625 9.296875 32.140625 10.296875 32.140625 
C 10.796875 32.140625 11 32.34375 11.5 33.03125 
C 14.703125 37.515625 19.09375 39.40625 24.09375 39.40625 
C 27.59375 39.40625 35.09375 37.21875 35.09375 20.140625 
C 35.09375 16.953125 35.09375 11.171875 32.09375 6.578125 
C 29.59375 2.484375 25.703125 0.390625 21.40625 0.390625 
C 14.796875 0.390625 8.09375 5 6.296875 12.71875 
C 6.703125 12.609375 7.5 12.421875 7.90625 12.421875 
C 9.203125 12.421875 11.703125 13.125 11.703125 16.21875 
C 11.703125 18.90625 9.796875 20 7.90625 20 
C 5.59375 20 4.09375 18.59375 4.09375 15.796875 
C 4.09375 7.09375 11 -2 21.59375 -2 
C 31.90625 -2 41.703125 6.875 41.703125 19.75 
C 41.703125 31.71875 33.90625 41 24.203125 41 
C 19.09375 41 14.796875 39.109375 11.40625 35.53125 
z
" id="CMR17-53"/>
     </defs>
     <g style="fill:#262626;" transform="translate(180.847128274 155.353294421)scale(0.09 -0.09)">
      <use transform="scale(0.996264009963)" xlink:href="#CMR17-53"/>
     </g>
    </g>
    <g id="line2d_127">
     <path d="M 155.647128 164.746756 
L 173.647128 164.746756 
" style="fill:none;stroke:#d62728;stroke-linecap:round;stroke-width:1.4;"/>
    </g>
    <g id="line2d_128"/>
    <g id="text_15">
     <!-- 20 -->
     <g style="fill:#262626;" transform="translate(180.847128274 167.896756438)scale(0.09 -0.09)">
      <use transform="scale(0.996264009963)" xlink:href="#CMR17-50"/>
      <use transform="translate(45.6904771171 0.0)scale(0.996264009963)" xlink:href="#CMR17-48"/>
     </g>
    </g>
   </g>
  </g>
 </g>
 <defs>
  <clipPath id="p6f301ff748">
   <rect height="157.8327896" width="157.8327896" x="42.4149379281" y="19.9074288557"/>
  </clipPath>
 </defs>
</svg>
