<?xml version="1.0" encoding="utf-8" standalone="no"?>
<!DOCTYPE svg PUBLIC "-//W3C//DTD SVG 1.1//EN"
  "http://www.w3.org/Graphics/SVG/1.1/DTD/svg11.dtd">
<!-- Created with matplotlib (http://matplotlib.org/) -->
<svg height="144pt" version="1.1" viewBox="0 0 504 144" width="504pt" xmlns="http://www.w3.org/2000/svg" xmlns:xlink="http://www.w3.org/1999/xlink">
 <defs>
  <style type="text/css">
*{stroke-linecap:butt;stroke-linejoin:round;stroke-miterlimit:100000;}
  </style>
 </defs>
 <g id="figure_1">
  <g id="patch_1">
   <path d="M 0 144 
L 504 144 
L 504 0 
L 0 0 
z
" style="fill:#ffffff;"/>
  </g>
  <g id="axes_1">
   <g id="patch_2">
    <path d="M 23.033313 115.982177 
L 122.4375 115.982177 
L 122.4375 16.577989 
L 23.033313 16.577989 
z
" style="fill:#ffffff;"/>
   </g>
   <g id="matplotlib.axis_1">
    <g id="text_1">
     <!-- fitness in env. 1, -->
     <defs>
      <path d="M 15.5 61.078125 
C 15.5 63.265625 13.703125 65.15625 11.40625 65.15625 
C 9.203125 65.15625 7.296875 63.375 7.296875 61.078125 
C 7.296875 58.890625 9.09375 57 11.40625 57 
C 13.59375 57 15.5 58.796875 15.5 61.078125 
M 3.796875 42.28125 
L 3.796875 39.703125 
C 9.40625 39.703125 10.203125 39.09375 10.203125 34.328125 
L 10.203125 6.671875 
C 10.203125 2.875 9.796875 2.390625 3.40625 2.390625 
L 3.40625 -0.203125 
C 5.796875 0 10.09375 0 12.59375 0 
C 15 0 19.09375 0 21.40625 -0.203125 
L 21.40625 2.390625 
C 15.5 2.390625 15.296875 2.984375 15.296875 6.5625 
L 15.296875 43.375 
z
" id="CMR17-105"/>
      <path d="M 39.90625 43.1875 
C 37.5 43.1875 30.09375 43.1875 28.203125 42.796875 
C 27.59375 42.578125 27.40625 42.578125 26.203125 42.578125 
L 14.796875 42.578125 
L 14.796875 54.203125 
C 14.796875 63.640625 22.40625 68 28.40625 68 
C 30.296875 68 34.59375 67.5 36.796875 64.078125 
C 35.796875 64.078125 32.59375 64.078125 32.59375 60.59375 
C 32.59375 58.203125 34.203125 57 36.203125 57 
C 38 57 39.796875 58 39.796875 60.703125 
C 39.796875 65.703125 35 69.59375 28.796875 69.59375 
C 20.90625 69.59375 9.90625 65.125 9.90625 54.203125 
L 9.90625 42.578125 
L 1.90625 42.578125 
L 1.90625 40 
L 9.90625 40 
L 9.90625 6.671875 
C 9.90625 2.875 9.5 2.390625 3.09375 2.390625 
L 3.09375 -0.203125 
C 5.5 0 9.90625 0 12.40625 0 
C 15 0 19.40625 0 21.796875 -0.203125 
L 21.796875 2.390625 
C 15.40625 2.390625 15 2.78125 15 6.671875 
L 15 40 
L 29.703125 40 
C 34 40 34.796875 39.09375 34.796875 34.71875 
L 34.796875 6.671875 
C 34.796875 2.875 34.40625 2.390625 28 2.390625 
L 28 -0.203125 
C 30.40625 0 34.796875 0 37.296875 0 
C 39.90625 0 44.296875 0 46.703125 -0.203125 
L 46.703125 2.390625 
C 40.296875 2.390625 39.90625 2.78125 39.90625 6.671875 
z
" id="CMR17-12"/>
      <path d="M 15.09375 40 
L 29.09375 40 
L 29.09375 42.578125 
L 15.09375 42.578125 
L 15.09375 61 
L 13.296875 61 
C 13.09375 50.703125 9.59375 41.6875 1.09375 41.6875 
L 1.09375 40 
L 9.796875 40 
L 9.796875 12.046875 
C 9.796875 10.15625 9.796875 -1 21.40625 -1 
C 27.296875 -1 30.703125 4.78125 30.703125 12.140625 
L 30.703125 17.8125 
L 28.90625 17.8125 
L 28.90625 12.234375 
C 28.90625 5.375 26.203125 0.796875 22 0.796875 
C 19.09375 0.796875 15.09375 2.78125 15.09375 11.84375 
z
" id="CMR17-116"/>
      <path d="M 30.90625 42.140625 
C 30.90625 43.953125 30.796875 44.046875 30.203125 44.046875 
C 29.796875 44.046875 29.703125 43.953125 28.5 42.453125 
C 28.203125 42.046875 27.296875 41.03125 27 40.640625 
C 23.796875 44.046875 19.296875 44.046875 17.59375 44.046875 
C 6.5 44.046875 2.5 38.234375 2.5 32.4375 
C 2.5 23.40625 12.703125 21.328125 15.59375 20.703125 
C 21.90625 19.421875 24.09375 19.015625 26.203125 17.203125 
C 27.5 16.015625 29.703125 13.8125 29.703125 10.21875 
C 29.703125 6 27.296875 0.59375 18.09375 0.59375 
C 9.40625 0.59375 6.296875 7.1875 4.5 15.953125 
C 4.203125 17.34375 4.203125 17.453125 3.40625 17.453125 
C 2.59375 17.453125 2.5 17.34375 2.5 15.359375 
L 2.5 0.984375 
C 2.5 -0.796875 2.59375 -0.90625 3.203125 -0.90625 
C 3.703125 -0.90625 3.796875 -0.796875 4.296875 0 
C 4.90625 0.890625 6.40625 3.296875 7 4.3125 
C 9 1.609375 12.5 -1 18.09375 -1 
C 28 -1 33.296875 4.421875 33.296875 12.25 
C 33.296875 17.375 30.59375 20.078125 29.296875 21.28125 
C 26.296875 24.390625 22.796875 25.09375 18.59375 25.890625 
C 13.09375 27.109375 6.09375 28.515625 6.09375 34.640625 
C 6.09375 37.234375 7.5 42.765625 17.59375 42.765625 
C 28.296875 42.765625 28.90625 32.71875 29.09375 29.5 
C 29.203125 29 29.703125 28.890625 30 28.890625 
C 30.90625 28.890625 30.90625 29.203125 30.90625 30.90625 
z
" id="CMR17-115"/>
      <path d="M 38.09375 23 
C 38.5 23.40625 38.5 23.609375 38.5 24.625 
C 38.5 34.96875 33.09375 44 21.703125 44 
C 11.09375 44 2.703125 33.890625 2.703125 21.609375 
C 2.703125 8.609375 12.203125 -1 22.796875 -1 
C 34 -1 38.40625 9.484375 38.40625 11.5625 
C 38.40625 12.25 37.796875 12.25 37.59375 12.25 
C 36.90625 12.25 36.796875 12.046875 36.40625 10.875 
C 34.203125 4.140625 28.703125 0.796875 23.5 0.796875 
C 19.203125 0.796875 14.90625 3.171875 12.203125 7.5 
C 9.09375 12.546875 9.09375 18.375 9.09375 23 
z
M 9.203125 24.5 
C 9.90625 39.140625 17.59375 42.40625 21.59375 42.40625 
C 28.40625 42.40625 33 35.890625 33.09375 24.5 
z
" id="CMR17-101"/>
      <path d="M 16.59375 4.078125 
C 16.59375 6.5625 14.59375 8.15625 12.5 8.15625 
C 10.5 8.15625 8.40625 6.5625 8.40625 4.078125 
C 8.40625 1.59375 10.40625 0 12.5 0 
C 14.5 0 16.59375 1.59375 16.59375 4.078125 
" id="CMR17-46"/>
      <path d="M 41.5 30.203125 
C 41.5 35.296875 40.5 43.59375 28.703125 43.59375 
C 20.796875 43.59375 16.703125 37.5 15.203125 33.5 
L 15.09375 33.5 
L 15.09375 43.59375 
L 3.296875 42.5 
L 3.296875 39.90625 
C 9.203125 39.90625 10.09375 39.296875 10.09375 34.5 
L 10.09375 6.6875 
C 10.09375 2.875 9.703125 2.390625 3.296875 2.390625 
L 3.296875 -0.203125 
C 5.703125 0 10.09375 0 12.703125 0 
C 15.296875 0 19.796875 0 22.203125 -0.203125 
L 22.203125 2.390625 
C 15.796875 2.390625 15.40625 2.78125 15.40625 6.6875 
L 15.40625 25.90625 
C 15.40625 35.109375 21 42 28 42 
C 35.40625 42 36.203125 35.40625 36.203125 30.59375 
L 36.203125 6.6875 
C 36.203125 2.875 35.796875 2.390625 29.40625 2.390625 
L 29.40625 -0.203125 
C 31.796875 0 36.203125 0 38.796875 0 
C 41.40625 0 45.90625 0 48.296875 -0.203125 
L 48.296875 2.390625 
C 41.90625 2.390625 41.5 2.78125 41.5 6.6875 
z
" id="CMR17-110"/>
      <path d="M 15.796875 1.59375 
C 16 0.703125 16 0.390625 16 -1.203125 
C 16 -7.234375 14 -12.765625 9.796875 -17.796875 
C 9.296875 -18.28125 9.296875 -18.484375 9.296875 -18.703125 
C 9.296875 -19.09375 9.703125 -19.5 10.09375 -19.5 
C 10.703125 -19.5 17.59375 -12.484375 17.59375 -1.359375 
C 17.59375 1.9375 17.203125 8.15625 12.5 8.15625 
C 10.296875 8.15625 8.40625 6.671875 8.40625 4.078125 
C 8.40625 1.5 10.296875 0 12.5 0 
C 13.703125 0 15 0.5 15.796875 1.59375 
" id="CMR17-44"/>
      <path d="M 26.59375 63.40625 
C 26.59375 65.5 26.5 65.5 25.09375 65.5 
C 21.203125 61.1875 15.296875 59.796875 9.703125 59.796875 
C 9.40625 59.796875 8.90625 59.796875 8.796875 59.5 
C 8.703125 59.296875 8.703125 59.09375 8.703125 57 
C 11.796875 57 17 57.59375 21 59.984375 
L 21 7.203125 
C 21 3.6875 20.796875 2.5 12.203125 2.5 
L 9.203125 2.5 
L 9.203125 0 
C 14 0 19 0 23.796875 0 
C 28.59375 0 33.59375 0 38.40625 0 
L 38.40625 2.5 
L 35.40625 2.5 
C 26.796875 2.5 26.59375 3.59375 26.59375 7.15625 
z
" id="CMR17-49"/>
      <path d="M 39.09375 33.796875 
C 40 36 41.59375 40 47.40625 40 
L 47.40625 42.59375 
C 45.5 42.59375 43 42.59375 41.09375 42.59375 
C 39 42.59375 35.703125 42.59375 33.703125 42.6875 
L 33.703125 40.09375 
C 36.203125 39.890625 37.59375 38.703125 37.59375 36.109375 
C 37.59375 35.203125 37.59375 35 37 33.609375 
L 26 5.890625 
L 14.09375 35.71875 
C 13.5 37.015625 13.5 37.203125 13.5 37.609375 
C 13.5 40 16.796875 40 18.296875 40 
L 18.296875 42.6875 
C 15.90625 42.59375 11.5 42.59375 9 42.59375 
C 6.296875 42.59375 3.203125 42.59375 1 42.6875 
L 1 40 
C 4.796875 40 6.90625 40 8.09375 36.90625 
L 22.59375 0.6875 
C 23.203125 -0.796875 23.296875 -1 24.203125 -1 
C 25.09375 -1 25.203125 -0.796875 25.796875 0.6875 
z
" id="CMR17-118"/>
     </defs>
     <g style="fill:#262626;" transform="translate(39.4029901298 124.71069461)scale(0.09 -0.09)">
      <use transform="scale(0.996264009963)" xlink:href="#CMR17-12"/>
      <use transform="translate(49.7422233762 0.0)scale(0.996264009963)" xlink:href="#CMR17-116"/>
      <use transform="translate(85.0229911757 0.0)scale(0.996264009963)" xlink:href="#CMR17-110"/>
      <use transform="translate(135.918360956 0.0)scale(0.996264009963)" xlink:href="#CMR17-101"/>
      <use transform="translate(176.404021419 0.0)scale(0.996264009963)" xlink:href="#CMR17-115"/>
      <use transform="translate(212.205359054 0.0)scale(0.996264009963)" xlink:href="#CMR17-115"/>
      <use transform="translate(278.082663036 0.0)scale(0.996264009963)" xlink:href="#CMR17-105"/>
      <use transform="translate(302.953721518 0.0)scale(0.996264009963)" xlink:href="#CMR17-110"/>
      <use transform="translate(383.925057645 0.0)scale(0.996264009963)" xlink:href="#CMR17-101"/>
      <use transform="translate(424.410718108 0.0)scale(0.996264009963)" xlink:href="#CMR17-110"/>
      <use transform="translate(472.703633956 0.0)scale(0.996264009963)" xlink:href="#CMR17-118"/>
      <use transform="translate(520.996549803 0.0)scale(0.996264009963)" xlink:href="#CMR17-46"/>
      <use transform="translate(586.353268748 0.0)scale(0.996264009963)" xlink:href="#CMR17-49"/>
      <use transform="translate(632.043745865 0.0)scale(0.996264009963)" xlink:href="#CMR17-44"/>
     </g>
     <!-- $f(x=1)$ -->
     <defs>
      <path d="M 64.296875 31.515625 
C 65.796875 31.515625 67.296875 31.515625 67.296875 33.203125 
C 67.296875 35 65.59375 35 63.90625 35 
L 8 35 
C 6.296875 35 4.59375 35 4.59375 33.203125 
C 4.59375 31.515625 6.09375 31.515625 7.59375 31.515625 
z
M 63.90625 14 
C 65.59375 14 67.296875 14 67.296875 15.796875 
C 67.296875 17.484375 65.796875 17.484375 64.296875 17.484375 
L 7.59375 17.484375 
C 6.09375 17.484375 4.59375 17.484375 4.59375 15.796875 
C 4.59375 14 6.296875 14 8 14 
z
" id="CMR17-61"/>
      <path d="M 44.59375 40.09375 
C 46.59375 40.09375 47.40625 40.09375 47.40625 42 
C 47.40625 43 46.59375 43 44.796875 43 
L 36.703125 43 
C 38.59375 53.578125 40 60.890625 40.796875 64.171875 
C 41.40625 66.640625 43.5 69 46.09375 69 
C 48.203125 69 50.296875 68.09375 51.296875 67.15625 
C 47.40625 66.75 46.203125 63.78125 46.203125 62.015625 
C 46.203125 59.953125 47.703125 58.734375 49.59375 58.734375 
C 51.59375 58.734375 54.59375 60.46875 54.59375 64.359375 
C 54.59375 68.640625 50.40625 71 46 71 
C 41.703125 71 37.5 67.71875 35.5 63.71875 
C 33.703125 60.125 32.703125 56.4375 30.40625 43 
L 23.703125 43 
C 21.796875 43 20.796875 43 20.796875 41.203125 
C 20.796875 40.09375 21.40625 40.09375 23.40625 40.09375 
L 29.796875 40.09375 
C 28 30.875 23.90625 8.46875 21.59375 -2.140625 
C 19.90625 -10.765625 18.40625 -18 13.40625 -18 
C 13.09375 -18 10.203125 -18 8.40625 -16.109375 
C 13.5 -15.703125 13.5 -11.34375 13.5 -11.25 
C 13.5 -9.265625 12 -8.078125 10.09375 -8.078125 
C 8.09375 -8.078125 5.09375 -9.765625 5.09375 -13.546875 
C 5.09375 -17.8125 9.5 -20 13.40625 -20 
C 23.59375 -20 27.796875 -1.84375 28.90625 3.109375 
C 30.703125 10.75 35.59375 37.125 36.09375 40.09375 
z
" id="CMMI12-102"/>
      <path d="M 26.296875 24.6875 
C 26.296875 31.875 25.59375 44.015625 19.59375 56.859375 
C 14.796875 67.234375 6.59375 74.5 5.40625 74.5 
C 5.09375 74.5 4.703125 74.390625 4.703125 73.890625 
C 4.703125 73.703125 4.796875 73.59375 4.90625 73.390625 
C 9.703125 68.40625 21.90625 55.75 21.90625 24.75 
C 21.90625 -6.359375 9.796875 -19.015625 4.90625 -24.015625 
C 4.796875 -24.203125 4.703125 -24.3125 4.703125 -24.5 
C 4.703125 -25 5.09375 -25 5.40625 -25 
C 6.5 -25 15 -17.625 19.90625 -6.65625 
C 24.90625 4.390625 26.296875 15.140625 26.296875 24.6875 
" id="CMR17-41"/>
      <path d="M 30.59375 -24.390625 
C 30.59375 -24.296875 30.59375 -24.09375 30.296875 -23.796875 
C 25.703125 -19.125 13.40625 -6.359375 13.40625 24.6875 
C 13.40625 55.765625 25.5 68.421875 30.40625 73.390625 
C 30.40625 73.5 30.59375 73.703125 30.59375 74 
C 30.59375 74.296875 30.296875 74.5 29.90625 74.5 
C 28.796875 74.5 20.296875 67.125 15.40625 56.15625 
C 10.40625 45.109375 9 34.359375 9 24.8125 
C 9 17.625 9.703125 5.484375 15.703125 -7.359375 
C 20.5 -17.734375 28.703125 -25 29.90625 -25 
C 30.40625 -25 30.59375 -24.796875 30.59375 -24.390625 
" id="CMR17-40"/>
      <path d="M 47.40625 40.71875 
C 44.203125 40.109375 43 37.71875 43 35.828125 
C 43 33.421875 44.90625 32.625 46.296875 32.625 
C 49.296875 32.625 51.40625 35.21875 51.40625 37.921875 
C 51.40625 42.109375 46.59375 44 42.40625 44 
C 36.296875 44 32.90625 38.015625 32 36.125 
C 29.703125 44 23.5 44 21.703125 44 
C 11.5 44 6.09375 30.9375 6.09375 28.734375 
C 6.09375 28.34375 6.5 27.84375 7.203125 27.84375 
C 8 27.84375 8.203125 28.4375 8.40625 28.84375 
C 11.796875 39.921875 18.5 42.015625 21.40625 42.015625 
C 25.90625 42.015625 26.796875 37.8125 26.796875 35.421875 
C 26.796875 33.234375 26.203125 30.9375 25 26.140625 
L 21.59375 12.46875 
C 20.09375 6.484375 17.203125 1 11.90625 1 
C 11.40625 1 8.90625 1 6.796875 2.296875 
C 10.40625 3 11.203125 5.984375 11.203125 7.1875 
C 11.203125 9.1875 9.703125 10.375 7.796875 10.375 
C 5.40625 10.375 2.796875 8.28125 2.796875 5.09375 
C 2.796875 0.890625 7.5 -1 11.796875 -1 
C 16.59375 -1 20 2.796875 22.09375 6.890625 
C 23.703125 1 28.703125 -1 32.40625 -1 
C 42.59375 -1 48 12.078125 48 14.265625 
C 48 14.765625 47.59375 15.171875 47 15.171875 
C 46.09375 15.171875 46 14.671875 45.703125 13.875 
C 43 5.09375 37.203125 1 32.703125 1 
C 29.203125 1 27.296875 3.59375 27.296875 7.6875 
C 27.296875 9.875 27.703125 11.46875 29.296875 18.0625 
L 32.796875 31.625 
C 34.296875 37.625 37.703125 42.015625 42.296875 42.015625 
C 42.5 42.015625 45.296875 42.015625 47.40625 40.71875 
" id="CMMI12-120"/>
     </defs>
     <g style="fill:#262626;" transform="translate(55.3683352346 134.523895108)scale(0.09 -0.09)">
      <use transform="scale(0.996264009963)" xlink:href="#CMMI12-102"/>
      <use transform="translate(58.7203048383 0.0)scale(0.996264009963)" xlink:href="#CMR17-40"/>
      <use transform="translate(94.0010726378 0.0)scale(0.996264009963)" xlink:href="#CMMI12-120"/>
      <use transform="translate(177.109140893 0.0)scale(0.996264009963)" xlink:href="#CMR17-61"/>
      <use transform="translate(276.49793803 0.0)scale(0.996264009963)" xlink:href="#CMR17-49"/>
      <use transform="translate(322.188415147 0.0)scale(0.996264009963)" xlink:href="#CMR17-41"/>
     </g>
    </g>
   </g>
   <g id="matplotlib.axis_2">
    <g id="text_2">
     <!-- fitness in env. 2, -->
     <defs>
      <path d="M 41.703125 15.453125 
L 39.90625 15.453125 
C 38.90625 8.375 38.09375 7.171875 37.703125 6.5625 
C 37.203125 5.765625 30 5.765625 28.59375 5.765625 
L 9.40625 5.765625 
C 13 9.671875 20 16.75 28.5 24.953125 
C 34.59375 30.734375 41.703125 37.53125 41.703125 47.421875 
C 41.703125 59.21875 32.296875 66 21.796875 66 
C 10.796875 66 4.09375 56.3125 4.09375 47.34375 
C 4.09375 43.4375 7 42.9375 8.203125 42.9375 
C 9.203125 42.9375 12.203125 43.546875 12.203125 47.03125 
C 12.203125 50.109375 9.59375 51 8.203125 51 
C 7.59375 51 7 50.90625 6.59375 50.703125 
C 8.5 59.21875 14.296875 63.40625 20.40625 63.40625 
C 29.09375 63.40625 34.796875 56.515625 34.796875 47.421875 
C 34.796875 38.734375 29.703125 31.25 24 24.75 
L 4.09375 2.28125 
L 4.09375 0 
L 39.296875 0 
z
" id="CMR17-50"/>
     </defs>
     <g style="fill:#262626;" transform="translate(7.97851805729 99.6124990006)rotate(-90.0)scale(0.09 -0.09)">
      <use transform="scale(0.996264009963)" xlink:href="#CMR17-12"/>
      <use transform="translate(49.7422233762 0.0)scale(0.996264009963)" xlink:href="#CMR17-116"/>
      <use transform="translate(85.0229911757 0.0)scale(0.996264009963)" xlink:href="#CMR17-110"/>
      <use transform="translate(135.918360956 0.0)scale(0.996264009963)" xlink:href="#CMR17-101"/>
      <use transform="translate(176.404021419 0.0)scale(0.996264009963)" xlink:href="#CMR17-115"/>
      <use transform="translate(212.205359054 0.0)scale(0.996264009963)" xlink:href="#CMR17-115"/>
      <use transform="translate(278.082663036 0.0)scale(0.996264009963)" xlink:href="#CMR17-105"/>
      <use transform="translate(302.953721518 0.0)scale(0.996264009963)" xlink:href="#CMR17-110"/>
      <use transform="translate(383.925057645 0.0)scale(0.996264009963)" xlink:href="#CMR17-101"/>
      <use transform="translate(424.410718108 0.0)scale(0.996264009963)" xlink:href="#CMR17-110"/>
      <use transform="translate(472.703633956 0.0)scale(0.996264009963)" xlink:href="#CMR17-118"/>
      <use transform="translate(520.996549803 0.0)scale(0.996264009963)" xlink:href="#CMR17-46"/>
      <use transform="translate(586.353268748 0.0)scale(0.996264009963)" xlink:href="#CMR17-50"/>
      <use transform="translate(632.043745865 0.0)scale(0.996264009963)" xlink:href="#CMR17-44"/>
     </g>
     <!-- $f(x=2)$ -->
     <g style="fill:#262626;" transform="translate(17.7917185554 83.6471538959)rotate(-90.0)scale(0.09 -0.09)">
      <use transform="scale(0.996264009963)" xlink:href="#CMMI12-102"/>
      <use transform="translate(58.7203048383 0.0)scale(0.996264009963)" xlink:href="#CMR17-40"/>
      <use transform="translate(94.0010726378 0.0)scale(0.996264009963)" xlink:href="#CMMI12-120"/>
      <use transform="translate(177.109140893 0.0)scale(0.996264009963)" xlink:href="#CMR17-61"/>
      <use transform="translate(276.49793803 0.0)scale(0.996264009963)" xlink:href="#CMR17-50"/>
      <use transform="translate(322.188415147 0.0)scale(0.996264009963)" xlink:href="#CMR17-41"/>
     </g>
    </g>
   </g>
   <g id="PathCollection_1">
    <defs>
     <path d="M 0 2.236068 
C 0.593012 2.236068 1.161816 2.000462 1.581139 1.581139 
C 2.000462 1.161816 2.236068 0.593012 2.236068 0 
C 2.236068 -0.593012 2.000462 -1.161816 1.581139 -1.581139 
C 1.161816 -2.000462 0.593012 -2.236068 0 -2.236068 
C -0.593012 -2.236068 -1.161816 -2.000462 -1.581139 -1.581139 
C -2.000462 -1.161816 -2.236068 -0.593012 -2.236068 0 
C -2.236068 0.593012 -2.000462 1.161816 -1.581139 1.581139 
C -1.161816 2.000462 -0.593012 2.236068 0 2.236068 
z
" id="m17dcea8bdb" style="stroke:#ff7f0e;stroke-width:0.8;"/>
    </defs>
    <g clip-path="url(#p8f61e66b02)">
     <use style="fill:#ff7f0e;stroke:#ff7f0e;stroke-width:0.8;" x="31.3591026583" xlink:href="#m17dcea8bdb" y="75.2458980877"/>
     <use style="fill:#ff7f0e;stroke:#ff7f0e;stroke-width:0.8;" x="29.6391872343" xlink:href="#m17dcea8bdb" y="95.6278345316"/>
     <use style="fill:#ff7f0e;stroke:#ff7f0e;stroke-width:0.8;" x="28.2636603661" xlink:href="#m17dcea8bdb" y="41.4421856598"/>
     <use style="fill:#ff7f0e;stroke:#ff7f0e;stroke-width:0.8;" x="27.8184161867" xlink:href="#m17dcea8bdb" y="53.9723997575"/>
     <use style="fill:#ff7f0e;stroke:#ff7f0e;stroke-width:0.8;" x="65.2599299739" xlink:href="#m17dcea8bdb" y="110.031876669"/>
     <use style="fill:#ff7f0e;stroke:#ff7f0e;stroke-width:0.8;" x="36.7226719432" xlink:href="#m17dcea8bdb" y="102.796664161"/>
     <use style="fill:#ff7f0e;stroke:#ff7f0e;stroke-width:0.8;" x="75.1247001734" xlink:href="#m17dcea8bdb" y="104.150116315"/>
     <use style="fill:#ff7f0e;stroke:#ff7f0e;stroke-width:0.8;" x="59.0074024315" xlink:href="#m17dcea8bdb" y="94.5971670365"/>
     <use style="fill:#ff7f0e;stroke:#ff7f0e;stroke-width:0.8;" x="55.1878330302" xlink:href="#m17dcea8bdb" y="99.2607062882"/>
     <use style="fill:#ff7f0e;stroke:#ff7f0e;stroke-width:0.8;" x="31.1339303037" xlink:href="#m17dcea8bdb" y="109.906769843"/>
     <use style="fill:#ff7f0e;stroke:#ff7f0e;stroke-width:0.8;" x="42.1484315233" xlink:href="#m17dcea8bdb" y="101.179655353"/>
     <use style="fill:#ff7f0e;stroke:#ff7f0e;stroke-width:0.8;" x="51.2699872443" xlink:href="#m17dcea8bdb" y="104.019269811"/>
     <use style="fill:#ff7f0e;stroke:#ff7f0e;stroke-width:0.8;" x="37.0635944076" xlink:href="#m17dcea8bdb" y="75.1546816084"/>
     <use style="fill:#ff7f0e;stroke:#ff7f0e;stroke-width:0.8;" x="27.5704031687" xlink:href="#m17dcea8bdb" y="67.4418112777"/>
     <use style="fill:#ff7f0e;stroke:#ff7f0e;stroke-width:0.8;" x="34.7917811146" xlink:href="#m17dcea8bdb" y="83.1612348239"/>
     <use style="fill:#ff7f0e;stroke:#ff7f0e;stroke-width:0.8;" x="29.4826551436" xlink:href="#m17dcea8bdb" y="47.3574067098"/>
     <use style="fill:#ff7f0e;stroke:#ff7f0e;stroke-width:0.8;" x="40.8772493049" xlink:href="#m17dcea8bdb" y="84.6547169025"/>
     <use style="fill:#ff7f0e;stroke:#ff7f0e;stroke-width:0.8;" x="47.9943144185" xlink:href="#m17dcea8bdb" y="82.3886707275"/>
     <use style="fill:#ff7f0e;stroke:#ff7f0e;stroke-width:0.8;" x="60.4752143001" xlink:href="#m17dcea8bdb" y="102.719104028"/>
     <use style="fill:#ff7f0e;stroke:#ff7f0e;stroke-width:0.8;" x="38.373968062" xlink:href="#m17dcea8bdb" y="92.1045945555"/>
    </g>
   </g>
   <g id="patch_3">
    <path d="M 23.033313 115.982177 
L 122.4375 115.982177 
" style="fill:none;stroke:#262626;stroke-linecap:square;stroke-linejoin:miter;"/>
   </g>
   <g id="patch_4">
    <path d="M 23.033313 115.982177 
L 23.033313 16.577989 
" style="fill:none;stroke:#262626;stroke-linecap:square;stroke-linejoin:miter;"/>
   </g>
   <g id="text_3">
    <!-- {\sf \textbf{A}} -->
    <defs>
     <path d="M 47.40625 65.65625 
C 45.90625 70 43 70 41 70 
L 32.203125 70 
C 30.203125 70 27.296875 70 25.796875 65.65625 
L 4.703125 4.734375 
C 4.203125 3.4375 4.203125 3.234375 4.203125 2.734375 
C 4.203125 0 6.703125 0 8.09375 0 
L 11.703125 0 
C 13.5 0 16.59375 0 18 3.96875 
L 21.90625 15 
L 49.59375 15 
L 53 5.46875 
C 54.203125 1.984375 54.90625 0 59.703125 0 
L 65.09375 0 
C 66.5 0 69 0 69 2.6875 
C 69 3.1875 69 3.390625 68.5 4.703125 
z
M 32.09375 45.171875 
C 33.59375 49.625 34.90625 53.46875 35.703125 57.125 
L 35.796875 57.125 
C 36.296875 54.703125 36.296875 54.5 37.09375 52.15625 
L 46.59375 23.6875 
L 24.90625 23.6875 
z
" id="CMSSBX10-65"/>
    </defs>
    <g style="fill:#262626;" transform="translate(8.12268446451 21.5481985015)scale(0.09 -0.09)">
     <use transform="scale(0.996264009963)" xlink:href="#CMSSBX10-65"/>
    </g>
   </g>
  </g>
  <g id="axes_2">
   <g id="patch_5">
    <path d="M 149.470813 115.982177 
L 248.875 115.982177 
L 248.875 16.577989 
L 149.470813 16.577989 
z
" style="fill:#ffffff;"/>
   </g>
   <g id="matplotlib.axis_3">
    <g id="text_4">
     <!-- fitness in env. 1, -->
     <g style="fill:#262626;" transform="translate(165.84049013 124.71069461)scale(0.09 -0.09)">
      <use transform="scale(0.996264009963)" xlink:href="#CMR17-12"/>
      <use transform="translate(49.7422233762 0.0)scale(0.996264009963)" xlink:href="#CMR17-116"/>
      <use transform="translate(85.0229911757 0.0)scale(0.996264009963)" xlink:href="#CMR17-110"/>
      <use transform="translate(135.918360956 0.0)scale(0.996264009963)" xlink:href="#CMR17-101"/>
      <use transform="translate(176.404021419 0.0)scale(0.996264009963)" xlink:href="#CMR17-115"/>
      <use transform="translate(212.205359054 0.0)scale(0.996264009963)" xlink:href="#CMR17-115"/>
      <use transform="translate(278.082663036 0.0)scale(0.996264009963)" xlink:href="#CMR17-105"/>
      <use transform="translate(302.953721518 0.0)scale(0.996264009963)" xlink:href="#CMR17-110"/>
      <use transform="translate(383.925057645 0.0)scale(0.996264009963)" xlink:href="#CMR17-101"/>
      <use transform="translate(424.410718108 0.0)scale(0.996264009963)" xlink:href="#CMR17-110"/>
      <use transform="translate(472.703633956 0.0)scale(0.996264009963)" xlink:href="#CMR17-118"/>
      <use transform="translate(520.996549803 0.0)scale(0.996264009963)" xlink:href="#CMR17-46"/>
      <use transform="translate(586.353268748 0.0)scale(0.996264009963)" xlink:href="#CMR17-49"/>
      <use transform="translate(632.043745865 0.0)scale(0.996264009963)" xlink:href="#CMR17-44"/>
     </g>
     <!-- $f(x=1)$ -->
     <g style="fill:#262626;" transform="translate(181.805835235 134.523895108)scale(0.09 -0.09)">
      <use transform="scale(0.996264009963)" xlink:href="#CMMI12-102"/>
      <use transform="translate(58.7203048383 0.0)scale(0.996264009963)" xlink:href="#CMR17-40"/>
      <use transform="translate(94.0010726378 0.0)scale(0.996264009963)" xlink:href="#CMMI12-120"/>
      <use transform="translate(177.109140893 0.0)scale(0.996264009963)" xlink:href="#CMR17-61"/>
      <use transform="translate(276.49793803 0.0)scale(0.996264009963)" xlink:href="#CMR17-49"/>
      <use transform="translate(322.188415147 0.0)scale(0.996264009963)" xlink:href="#CMR17-41"/>
     </g>
    </g>
   </g>
   <g id="matplotlib.axis_4">
    <g id="text_5">
     <!-- fitness in env. 2, -->
     <g style="fill:#262626;" transform="translate(134.416018057 99.6124990006)rotate(-90.0)scale(0.09 -0.09)">
      <use transform="scale(0.996264009963)" xlink:href="#CMR17-12"/>
      <use transform="translate(49.7422233762 0.0)scale(0.996264009963)" xlink:href="#CMR17-116"/>
      <use transform="translate(85.0229911757 0.0)scale(0.996264009963)" xlink:href="#CMR17-110"/>
      <use transform="translate(135.918360956 0.0)scale(0.996264009963)" xlink:href="#CMR17-101"/>
      <use transform="translate(176.404021419 0.0)scale(0.996264009963)" xlink:href="#CMR17-115"/>
      <use transform="translate(212.205359054 0.0)scale(0.996264009963)" xlink:href="#CMR17-115"/>
      <use transform="translate(278.082663036 0.0)scale(0.996264009963)" xlink:href="#CMR17-105"/>
      <use transform="translate(302.953721518 0.0)scale(0.996264009963)" xlink:href="#CMR17-110"/>
      <use transform="translate(383.925057645 0.0)scale(0.996264009963)" xlink:href="#CMR17-101"/>
      <use transform="translate(424.410718108 0.0)scale(0.996264009963)" xlink:href="#CMR17-110"/>
      <use transform="translate(472.703633956 0.0)scale(0.996264009963)" xlink:href="#CMR17-118"/>
      <use transform="translate(520.996549803 0.0)scale(0.996264009963)" xlink:href="#CMR17-46"/>
      <use transform="translate(586.353268748 0.0)scale(0.996264009963)" xlink:href="#CMR17-50"/>
      <use transform="translate(632.043745865 0.0)scale(0.996264009963)" xlink:href="#CMR17-44"/>
     </g>
     <!-- $f(x=2)$ -->
     <g style="fill:#262626;" transform="translate(144.229218555 83.6471538959)rotate(-90.0)scale(0.09 -0.09)">
      <use transform="scale(0.996264009963)" xlink:href="#CMMI12-102"/>
      <use transform="translate(58.7203048383 0.0)scale(0.996264009963)" xlink:href="#CMR17-40"/>
      <use transform="translate(94.0010726378 0.0)scale(0.996264009963)" xlink:href="#CMMI12-120"/>
      <use transform="translate(177.109140893 0.0)scale(0.996264009963)" xlink:href="#CMR17-61"/>
      <use transform="translate(276.49793803 0.0)scale(0.996264009963)" xlink:href="#CMR17-50"/>
      <use transform="translate(322.188415147 0.0)scale(0.996264009963)" xlink:href="#CMR17-41"/>
     </g>
    </g>
   </g>
   <g id="PathCollection_2">
    <g clip-path="url(#p62e9f06f77)">
     <use style="fill:#ff7f0e;stroke:#ff7f0e;stroke-width:0.8;" x="157.796602658" xlink:href="#m17dcea8bdb" y="75.2458980877"/>
     <use style="fill:#ff7f0e;stroke:#ff7f0e;stroke-width:0.8;" x="156.076687234" xlink:href="#m17dcea8bdb" y="95.6278345316"/>
     <use style="fill:#ff7f0e;stroke:#ff7f0e;stroke-width:0.8;" x="154.701160366" xlink:href="#m17dcea8bdb" y="41.4421856598"/>
     <use style="fill:#ff7f0e;stroke:#ff7f0e;stroke-width:0.8;" x="154.255916187" xlink:href="#m17dcea8bdb" y="53.9723997575"/>
     <use style="fill:#ff7f0e;stroke:#ff7f0e;stroke-width:0.8;" x="191.697429974" xlink:href="#m17dcea8bdb" y="110.031876669"/>
     <use style="fill:#ff7f0e;stroke:#ff7f0e;stroke-width:0.8;" x="163.160171943" xlink:href="#m17dcea8bdb" y="102.796664161"/>
     <use style="fill:#ff7f0e;stroke:#ff7f0e;stroke-width:0.8;" x="201.562200173" xlink:href="#m17dcea8bdb" y="104.150116315"/>
     <use style="fill:#ff7f0e;stroke:#ff7f0e;stroke-width:0.8;" x="185.444902432" xlink:href="#m17dcea8bdb" y="94.5971670365"/>
     <use style="fill:#ff7f0e;stroke:#ff7f0e;stroke-width:0.8;" x="181.62533303" xlink:href="#m17dcea8bdb" y="99.2607062882"/>
     <use style="fill:#ff7f0e;stroke:#ff7f0e;stroke-width:0.8;" x="157.571430304" xlink:href="#m17dcea8bdb" y="109.906769843"/>
     <use style="fill:#ff7f0e;stroke:#ff7f0e;stroke-width:0.8;" x="168.585931523" xlink:href="#m17dcea8bdb" y="101.179655353"/>
     <use style="fill:#ff7f0e;stroke:#ff7f0e;stroke-width:0.8;" x="177.707487244" xlink:href="#m17dcea8bdb" y="104.019269811"/>
     <use style="fill:#ff7f0e;stroke:#ff7f0e;stroke-width:0.8;" x="163.501094408" xlink:href="#m17dcea8bdb" y="75.1546816084"/>
     <use style="fill:#ff7f0e;stroke:#ff7f0e;stroke-width:0.8;" x="154.007903169" xlink:href="#m17dcea8bdb" y="67.4418112777"/>
     <use style="fill:#ff7f0e;stroke:#ff7f0e;stroke-width:0.8;" x="161.229281115" xlink:href="#m17dcea8bdb" y="83.1612348239"/>
     <use style="fill:#ff7f0e;stroke:#ff7f0e;stroke-width:0.8;" x="155.920155144" xlink:href="#m17dcea8bdb" y="47.3574067098"/>
     <use style="fill:#ff7f0e;stroke:#ff7f0e;stroke-width:0.8;" x="167.314749305" xlink:href="#m17dcea8bdb" y="84.6547169025"/>
     <use style="fill:#ff7f0e;stroke:#ff7f0e;stroke-width:0.8;" x="174.431814419" xlink:href="#m17dcea8bdb" y="82.3886707275"/>
     <use style="fill:#ff7f0e;stroke:#ff7f0e;stroke-width:0.8;" x="186.9127143" xlink:href="#m17dcea8bdb" y="102.719104028"/>
     <use style="fill:#ff7f0e;stroke:#ff7f0e;stroke-width:0.8;" x="164.811468062" xlink:href="#m17dcea8bdb" y="92.1045945555"/>
    </g>
   </g>
   <g id="patch_6">
    <path clip-path="url(#p62e9f06f77)" d="M 201.5622 104.150116 
L 154.70116 41.442186 
L 154.255916 53.9724 
L 154.007903 67.441811 
L 156.076687 95.627835 
L 157.57143 109.90677 
L 191.69743 110.031877 
z
" style="fill:#ff7f0e;opacity:0.5;stroke:#ff7f0e;stroke-linejoin:miter;stroke-width:0.8;"/>
   </g>
   <g id="line2d_1">
    <path clip-path="url(#p62e9f06f77)" d="M 154.70116 41.442186 
L 201.5622 104.150116 
" style="fill:none;stroke:#1f77b4;stroke-linecap:round;stroke-width:2.0;"/>
   </g>
   <g id="line2d_2">
    <defs>
     <path d="M 0 2.25 
C 0.596707 2.25 1.169055 2.012926 1.59099 1.59099 
C 2.012926 1.169055 2.25 0.596707 2.25 0 
C 2.25 -0.596707 2.012926 -1.169055 1.59099 -1.59099 
C 1.169055 -2.012926 0.596707 -2.25 0 -2.25 
C -0.596707 -2.25 -1.169055 -2.012926 -1.59099 -1.59099 
C -2.012926 -1.169055 -2.25 -0.596707 -2.25 0 
C -2.25 0.596707 -2.012926 1.169055 -1.59099 1.59099 
C -1.169055 2.012926 -0.596707 2.25 0 2.25 
z
" id="ma8eb18ee0c" style="stroke:#1f77b4;stroke-width:0.8;"/>
    </defs>
    <g clip-path="url(#p62e9f06f77)">
     <use style="fill:#1f77b4;stroke:#1f77b4;stroke-width:0.8;" x="154.701160366" xlink:href="#ma8eb18ee0c" y="41.4421856598"/>
     <use style="fill:#1f77b4;stroke:#1f77b4;stroke-width:0.8;" x="201.562200173" xlink:href="#ma8eb18ee0c" y="104.150116315"/>
    </g>
   </g>
   <g id="patch_7">
    <path d="M 149.470813 115.982177 
L 248.875 115.982177 
" style="fill:none;stroke:#262626;stroke-linecap:square;stroke-linejoin:miter;"/>
   </g>
   <g id="patch_8">
    <path d="M 149.470813 115.982177 
L 149.470813 16.577989 
" style="fill:none;stroke:#262626;stroke-linecap:square;stroke-linejoin:miter;"/>
   </g>
   <g id="text_6">
    <!-- {\sf \textbf{B}} -->
    <defs>
     <path d="M 13.90625 70 
C 10.296875 70 9.09375 68.90625 9.09375 65.203125 
L 9.09375 5.40625 
C 9.09375 1.8125 10.203125 0.609375 13.90625 0.609375 
L 41.296875 0.609375 
C 48.703125 0.609375 67.09375 0.609375 67.09375 19.203125 
C 67.09375 33.6875 53.203125 35.9375 49.5 36.5625 
C 58.703125 38.671875 64 43.9375 64 51.8125 
C 64 70 42.703125 70 38.5 70 
z
M 23.203125 40 
L 23.203125 61.109375 
L 34.90625 61.109375 
C 38.796875 61.109375 50.40625 61.109375 50.40625 51.5625 
C 50.40625 40 37.296875 40 34.796875 40 
z
M 23.203125 9 
L 23.203125 32.71875 
L 35.796875 32.71875 
C 39.296875 32.71875 53.203125 32.71875 53.203125 19.546875 
C 53.203125 9 42.5 9 37.703125 9 
z
" id="CMSSBX10-66"/>
    </defs>
    <g style="fill:#262626;" transform="translate(134.560184465 21.5481985015)scale(0.09 -0.09)">
     <use transform="scale(0.996264009963)" xlink:href="#CMSSBX10-66"/>
    </g>
   </g>
  </g>
  <g id="axes_3">
   <g id="patch_9">
    <path d="M 275.908313 115.982177 
L 375.3125 115.982177 
L 375.3125 16.577989 
L 275.908313 16.577989 
z
" style="fill:#ffffff;"/>
   </g>
   <g id="matplotlib.axis_5">
    <g id="text_7">
     <!-- fitness in env. 1, -->
     <g style="fill:#262626;" transform="translate(292.27799013 124.71069461)scale(0.09 -0.09)">
      <use transform="scale(0.996264009963)" xlink:href="#CMR17-12"/>
      <use transform="translate(49.7422233762 0.0)scale(0.996264009963)" xlink:href="#CMR17-116"/>
      <use transform="translate(85.0229911757 0.0)scale(0.996264009963)" xlink:href="#CMR17-110"/>
      <use transform="translate(135.918360956 0.0)scale(0.996264009963)" xlink:href="#CMR17-101"/>
      <use transform="translate(176.404021419 0.0)scale(0.996264009963)" xlink:href="#CMR17-115"/>
      <use transform="translate(212.205359054 0.0)scale(0.996264009963)" xlink:href="#CMR17-115"/>
      <use transform="translate(278.082663036 0.0)scale(0.996264009963)" xlink:href="#CMR17-105"/>
      <use transform="translate(302.953721518 0.0)scale(0.996264009963)" xlink:href="#CMR17-110"/>
      <use transform="translate(383.925057645 0.0)scale(0.996264009963)" xlink:href="#CMR17-101"/>
      <use transform="translate(424.410718108 0.0)scale(0.996264009963)" xlink:href="#CMR17-110"/>
      <use transform="translate(472.703633956 0.0)scale(0.996264009963)" xlink:href="#CMR17-118"/>
      <use transform="translate(520.996549803 0.0)scale(0.996264009963)" xlink:href="#CMR17-46"/>
      <use transform="translate(586.353268748 0.0)scale(0.996264009963)" xlink:href="#CMR17-49"/>
      <use transform="translate(632.043745865 0.0)scale(0.996264009963)" xlink:href="#CMR17-44"/>
     </g>
     <!-- $f(x=1)$ -->
     <g style="fill:#262626;" transform="translate(308.243335235 134.523895108)scale(0.09 -0.09)">
      <use transform="scale(0.996264009963)" xlink:href="#CMMI12-102"/>
      <use transform="translate(58.7203048383 0.0)scale(0.996264009963)" xlink:href="#CMR17-40"/>
      <use transform="translate(94.0010726378 0.0)scale(0.996264009963)" xlink:href="#CMMI12-120"/>
      <use transform="translate(177.109140893 0.0)scale(0.996264009963)" xlink:href="#CMR17-61"/>
      <use transform="translate(276.49793803 0.0)scale(0.996264009963)" xlink:href="#CMR17-49"/>
      <use transform="translate(322.188415147 0.0)scale(0.996264009963)" xlink:href="#CMR17-41"/>
     </g>
    </g>
   </g>
   <g id="matplotlib.axis_6">
    <g id="text_8">
     <!-- fitness in env. 2, -->
     <g style="fill:#262626;" transform="translate(260.853518057 99.6124990006)rotate(-90.0)scale(0.09 -0.09)">
      <use transform="scale(0.996264009963)" xlink:href="#CMR17-12"/>
      <use transform="translate(49.7422233762 0.0)scale(0.996264009963)" xlink:href="#CMR17-116"/>
      <use transform="translate(85.0229911757 0.0)scale(0.996264009963)" xlink:href="#CMR17-110"/>
      <use transform="translate(135.918360956 0.0)scale(0.996264009963)" xlink:href="#CMR17-101"/>
      <use transform="translate(176.404021419 0.0)scale(0.996264009963)" xlink:href="#CMR17-115"/>
      <use transform="translate(212.205359054 0.0)scale(0.996264009963)" xlink:href="#CMR17-115"/>
      <use transform="translate(278.082663036 0.0)scale(0.996264009963)" xlink:href="#CMR17-105"/>
      <use transform="translate(302.953721518 0.0)scale(0.996264009963)" xlink:href="#CMR17-110"/>
      <use transform="translate(383.925057645 0.0)scale(0.996264009963)" xlink:href="#CMR17-101"/>
      <use transform="translate(424.410718108 0.0)scale(0.996264009963)" xlink:href="#CMR17-110"/>
      <use transform="translate(472.703633956 0.0)scale(0.996264009963)" xlink:href="#CMR17-118"/>
      <use transform="translate(520.996549803 0.0)scale(0.996264009963)" xlink:href="#CMR17-46"/>
      <use transform="translate(586.353268748 0.0)scale(0.996264009963)" xlink:href="#CMR17-50"/>
      <use transform="translate(632.043745865 0.0)scale(0.996264009963)" xlink:href="#CMR17-44"/>
     </g>
     <!-- $f(x=2)$ -->
     <g style="fill:#262626;" transform="translate(270.666718555 83.6471538959)rotate(-90.0)scale(0.09 -0.09)">
      <use transform="scale(0.996264009963)" xlink:href="#CMMI12-102"/>
      <use transform="translate(58.7203048383 0.0)scale(0.996264009963)" xlink:href="#CMR17-40"/>
      <use transform="translate(94.0010726378 0.0)scale(0.996264009963)" xlink:href="#CMMI12-120"/>
      <use transform="translate(177.109140893 0.0)scale(0.996264009963)" xlink:href="#CMR17-61"/>
      <use transform="translate(276.49793803 0.0)scale(0.996264009963)" xlink:href="#CMR17-50"/>
      <use transform="translate(322.188415147 0.0)scale(0.996264009963)" xlink:href="#CMR17-41"/>
     </g>
    </g>
   </g>
   <g id="line2d_3">
    <path clip-path="url(#pe429e4e058)" d="M 281.13866 41.442186 
L 327.9997 104.150116 
" style="fill:none;stroke:#1f77b4;stroke-linecap:round;stroke-width:2.0;"/>
   </g>
   <g id="line2d_4">
    <g clip-path="url(#pe429e4e058)">
     <use style="fill:#1f77b4;stroke:#1f77b4;stroke-width:0.8;" x="281.138660366" xlink:href="#ma8eb18ee0c" y="41.4421856598"/>
     <use style="fill:#1f77b4;stroke:#1f77b4;stroke-width:0.8;" x="327.999700173" xlink:href="#ma8eb18ee0c" y="104.150116315"/>
    </g>
   </g>
   <g id="line2d_5">
    <path clip-path="url(#pe429e4e058)" d="M 292.393402 -1 
L 294.015202 23.2538 
L 296.264757 45.424575 
L 298.514312 60.732937 
L 300.763868 71.703608 
L 303.013423 79.808256 
L 305.262978 85.948971 
L 307.512533 90.702212 
L 309.762088 94.449481 
L 312.011643 97.450927 
L 314.261198 99.888588 
L 316.510753 101.89275 
L 318.760308 103.558527 
L 321.009863 104.956594 
L 323.259418 106.140297 
L 325.508973 107.150478 
L 327.758529 108.018805 
L 330.008084 108.770122 
L 332.257639 109.424128 
L 334.507194 109.996592 
L 336.756749 110.500253 
L 339.006304 110.945484 
L 341.255859 111.340802 
L 343.505414 111.693241 
L 345.754969 112.008658 
L 348.004524 112.291954 
L 350.254079 112.547253 
L 352.503634 112.778049 
L 354.753189 112.987314 
L 357.002745 113.177587 
L 359.2523 113.35105 
L 361.501855 113.509583 
L 363.75141 113.654815 
L 366.000965 113.788161 
L 368.25052 113.910854 
L 370.500075 114.023976 
L 372.74963 114.128474 
L 374.999185 114.225184 
L 377.24874 114.314845 
L 379.498295 114.39811 
L 381.74785 114.475559 
L 383.997406 114.547709 
L 386.246961 114.615024 
" style="fill:none;opacity:0.5;stroke:#2ca02c;stroke-linecap:round;stroke-width:0.75;"/>
   </g>
   <g id="line2d_6">
    <path clip-path="url(#pe429e4e058)" d="M 297.807278 -1 
L 298.514312 8.371352 
L 300.763868 29.739302 
L 303.013423 45.525 
L 305.262978 57.48548 
L 307.512533 66.743528 
L 309.762088 74.042212 
L 312.011643 79.888231 
L 314.261198 84.636147 
L 316.510753 88.53972 
L 318.760308 91.784211 
L 321.009863 94.507274 
L 323.259418 96.812813 
L 325.508973 98.780376 
L 327.758529 100.471646 
L 330.008084 101.935013 
L 332.257639 103.208842 
L 334.507194 104.32385 
L 336.756749 105.304847 
L 339.006304 106.17204 
L 341.255859 106.942013 
L 343.505414 107.628472 
L 345.754969 108.24282 
L 348.004524 108.794604 
L 350.254079 109.291859 
L 352.503634 109.741389 
L 354.753189 110.148981 
L 357.002745 110.519583 
L 359.2523 110.857442 
L 361.501855 111.166223 
L 363.75141 111.449096 
L 366.000965 111.708817 
L 368.25052 111.947791 
L 370.500075 112.168122 
L 372.74963 112.371657 
L 374.999185 112.560023 
L 377.24874 112.734658 
L 379.498295 112.896835 
L 381.74785 113.047685 
L 383.997406 113.188216 
L 386.246961 113.319326 
" style="fill:none;opacity:0.5;stroke:#2ca02c;stroke-linecap:round;stroke-width:0.75;"/>
   </g>
   <g id="line2d_7">
    <path clip-path="url(#pe429e4e058)" d="M 304.968825 -1 
L 305.262978 2.04617 
L 307.512533 20.078385 
L 309.762088 34.29428 
L 312.011643 45.680771 
L 314.261198 54.928447 
L 316.510753 62.53157 
L 318.760308 68.850975 
L 321.009863 74.154778 
L 323.259418 78.645356 
L 325.508973 82.477645 
L 327.758529 85.771789 
L 330.008084 88.622037 
L 332.257639 91.103118 
L 334.507194 93.274857 
L 336.756749 95.185578 
L 339.006304 96.874639 
L 341.255859 98.374341 
L 343.505414 99.711381 
L 345.754969 100.907968 
L 348.004524 101.982696 
L 350.254079 102.951217 
L 352.503634 103.826782 
L 354.753189 104.620663 
L 357.002745 105.342497 
L 359.2523 106.000557 
L 361.501855 106.601979 
L 363.75141 107.15294 
L 366.000965 107.658809 
L 368.25052 108.124267 
L 370.500075 108.553413 
L 372.74963 108.949845 
L 374.999185 109.316732 
L 377.24874 109.656875 
L 379.498295 109.972752 
L 381.74785 110.266568 
L 383.997406 110.540284 
L 386.246961 110.795652 
" style="fill:none;opacity:0.5;stroke:#2ca02c;stroke-linecap:round;stroke-width:0.75;"/>
   </g>
   <g id="line2d_8">
    <path clip-path="url(#pe429e4e058)" d="M 278.15705 -1 
L 278.268317 12.846962 
L 280.517872 38.571426 
L 282.767427 50.695262 
L 285.016982 58.168344 
L 287.266537 63.386405 
L 289.516092 67.305837 
L 291.765647 70.395034 
L 294.015202 72.914564 
L 296.264757 75.022692 
L 298.514312 76.821955 
L 300.763868 78.382154 
L 303.013423 79.752709 
L 305.262978 80.969747 
L 307.512533 82.06038 
L 309.762088 83.04542 
L 312.011643 83.941146 
L 314.261198 84.760505 
L 316.510753 85.513945 
L 318.760308 86.210001 
L 321.009863 86.855728 
L 323.259418 87.457015 
L 325.508973 88.018823 
L 327.758529 88.545365 
L 330.008084 89.040247 
L 332.257639 89.506574 
L 334.507194 89.947039 
L 336.756749 90.363988 
L 339.006304 90.75948 
L 341.255859 91.135327 
L 343.505414 91.493132 
L 345.754969 91.834319 
L 348.004524 92.160159 
L 350.254079 92.47179 
L 352.503634 92.770234 
L 354.753189 93.056413 
L 357.002745 93.331159 
L 359.2523 93.595228 
L 361.501855 93.849306 
L 363.75141 94.09402 
L 366.000965 94.329942 
L 368.25052 94.557595 
L 370.500075 94.777461 
L 372.74963 94.989981 
L 374.999185 95.195563 
L 377.24874 95.394584 
L 379.498295 95.587392 
L 381.74785 95.774309 
L 383.997406 95.955636 
L 386.246961 96.13165 
" style="fill:none;opacity:0.5;stroke:#d62728;stroke-linecap:round;stroke-width:0.75;"/>
   </g>
   <g id="line2d_9">
    <path clip-path="url(#pe429e4e058)" d="M 279.599781 -1 
L 280.517872 12.970747 
L 282.767427 29.104082 
L 285.016982 39.048604 
L 287.266537 45.992342 
L 289.516092 51.207978 
L 291.765647 55.31881 
L 294.015202 58.671579 
L 296.264757 61.476891 
L 298.514312 63.871192 
L 300.763868 65.947368 
L 303.013423 67.771183 
L 305.262978 69.390709 
L 307.512533 70.842028 
L 309.762088 72.152832 
L 312.011643 73.344786 
L 314.261198 74.435118 
L 316.510753 75.437729 
L 318.760308 76.363979 
L 321.009863 77.223256 
L 323.259418 78.023396 
L 325.508973 78.771001 
L 327.758529 79.471677 
L 330.008084 80.130222 
L 332.257639 80.750769 
L 334.507194 81.336901 
L 336.756749 81.891741 
L 339.006304 82.418027 
L 341.255859 82.918171 
L 343.505414 83.394306 
L 345.754969 83.848327 
L 348.004524 84.281927 
L 350.254079 84.696618 
L 352.503634 85.093761 
L 354.753189 85.474583 
L 357.002745 85.840191 
L 359.2523 86.191591 
L 361.501855 86.529696 
L 363.75141 86.85534 
L 366.000965 87.169284 
L 368.25052 87.472225 
L 370.500075 87.764802 
L 372.74963 88.047605 
L 374.999185 88.321176 
L 377.24874 88.586016 
L 379.498295 88.842588 
L 381.74785 89.091321 
L 383.997406 89.332615 
L 386.246961 89.566839 
" style="fill:none;opacity:0.5;stroke:#d62728;stroke-linecap:round;stroke-width:0.75;"/>
   </g>
   <g id="line2d_10">
    <path clip-path="url(#pe429e4e058)" d="M 282.62362 -1 
L 282.767427 0.372437 
L 285.016982 13.605733 
L 287.266537 22.84585 
L 289.516092 29.786361 
L 291.765647 35.256695 
L 294.015202 39.718266 
L 296.264757 43.451329 
L 298.514312 46.637454 
L 300.763868 49.400246 
L 303.013423 51.827219 
L 305.262978 53.982342 
L 307.512533 55.91363 
L 309.762088 57.657934 
L 312.011643 59.244081 
L 314.261198 60.694999 
L 316.510753 62.029186 
L 318.760308 63.261758 
L 321.009863 64.405208 
L 323.259418 65.469965 
L 325.508973 66.464811 
L 327.758529 67.39721 
L 330.008084 68.273544 
L 332.257639 69.099313 
L 334.507194 69.879286 
L 336.756749 70.617618 
L 339.006304 71.317954 
L 341.255859 71.983501 
L 343.505414 72.617099 
L 345.754969 73.221272 
L 348.004524 73.798268 
L 350.254079 74.350102 
L 352.503634 74.878586 
L 354.753189 75.385349 
L 357.002745 75.871869 
L 359.2523 76.339481 
L 361.501855 76.789402 
L 363.75141 77.22274 
L 366.000965 77.640509 
L 368.25052 78.043636 
L 370.500075 78.432973 
L 372.74963 78.809302 
L 374.999185 79.173346 
L 377.24874 79.525772 
L 379.498295 79.867195 
L 381.74785 80.198187 
L 383.997406 80.51928 
L 386.246961 80.830965 
" style="fill:none;opacity:0.5;stroke:#d62728;stroke-linecap:round;stroke-width:0.75;"/>
   </g>
   <g id="line2d_11">
    <defs>
     <path d="M 0 -2.25 
L -0.505156 -0.695288 
L -2.139877 -0.695288 
L -0.81736 0.265576 
L -1.322517 1.820288 
L -0 0.859424 
L 1.322517 1.820288 
L 0.81736 0.265576 
L 2.139877 -0.695288 
L 0.505156 -0.695288 
z
" id="mebcd9bc6ad" style="stroke:#2ca02c;stroke-linejoin:bevel;stroke-width:0.8;"/>
    </defs>
    <g clip-path="url(#pe429e4e058)">
     <use style="fill:#2ca02c;stroke:#2ca02c;stroke-linejoin:bevel;stroke-width:0.8;" x="318.561674105" xlink:href="#mebcd9bc6ad" y="91.5204545171"/>
    </g>
   </g>
   <g id="line2d_12">
    <defs>
     <path d="M 0 -2.25 
L -0.505156 -0.695288 
L -2.139877 -0.695288 
L -0.81736 0.265576 
L -1.322517 1.820288 
L -0 0.859424 
L 1.322517 1.820288 
L 0.81736 0.265576 
L 2.139877 -0.695288 
L 0.505156 -0.695288 
z
" id="me29908b729" style="stroke:#d62728;stroke-linejoin:bevel;stroke-width:0.8;"/>
    </defs>
    <g clip-path="url(#pe429e4e058)">
     <use style="fill:#d62728;stroke:#d62728;stroke-linejoin:bevel;stroke-width:0.8;" x="294.188324661" xlink:href="#me29908b729" y="58.9048251365"/>
    </g>
   </g>
   <g id="patch_10">
    <path d="M 275.908313 115.982177 
L 375.3125 115.982177 
" style="fill:none;stroke:#262626;stroke-linecap:square;stroke-linejoin:miter;"/>
   </g>
   <g id="patch_11">
    <path d="M 275.908313 115.982177 
L 275.908313 16.577989 
" style="fill:none;stroke:#262626;stroke-linecap:square;stroke-linejoin:miter;"/>
   </g>
   <g id="text_9">
    <!-- {\sf \textbf{C}} -->
    <defs>
     <path d="M 64 14.453125 
C 64 15.265625 63.296875 15.65625 62.90625 15.65625 
C 60.5 15.65625 57.59375 9.109375 43.5 9.109375 
C 25.90625 9.109375 20.90625 20 20.90625 35.109375 
C 20.90625 50.109375 26.296875 61 42.703125 61 
C 51.59375 61 56.296875 57.46875 59 55.25 
C 59.59375 54.75 59.90625 54.34375 60.59375 54.34375 
C 61 54.34375 61.5 54.84375 61.59375 55.25 
L 63.59375 66.453125 
C 63.703125 66.859375 63.59375 67.265625 62.796875 67.5625 
C 56.90625 69.78125 50.796875 71.203125 43 71.203125 
C 18.59375 71.203125 6.09375 59.203125 6.09375 35.203125 
C 6.09375 10.5 18.796875 -1 43.09375 -1 
C 51.59375 -1 56.90625 0.21875 64.203125 4.765625 
C 65 5.265625 64.796875 5.984375 64.796875 5.984375 
z
" id="CMSSBX10-67"/>
    </defs>
    <g style="fill:#262626;" transform="translate(260.997684465 21.5481985015)scale(0.09 -0.09)">
     <use transform="scale(0.996264009963)" xlink:href="#CMSSBX10-67"/>
    </g>
   </g>
  </g>
  <g id="axes_4">
   <g id="patch_12">
    <path d="M 402.345813 115.982177 
L 501.75 115.982177 
L 501.75 16.577989 
L 402.345813 16.577989 
z
" style="fill:#ffffff;"/>
   </g>
   <g id="matplotlib.axis_7">
    <g id="xtick_1">
     <g id="line2d_13"/>
     <g id="line2d_14"/>
    </g>
    <g id="xtick_2">
     <g id="line2d_15"/>
     <g id="line2d_16"/>
    </g>
    <g id="xtick_3">
     <g id="line2d_17"/>
     <g id="line2d_18"/>
    </g>
    <g id="xtick_4">
     <g id="line2d_19"/>
     <g id="line2d_20"/>
    </g>
    <g id="xtick_5">
     <g id="line2d_21"/>
     <g id="line2d_22"/>
    </g>
    <g id="xtick_6">
     <g id="line2d_23"/>
     <g id="line2d_24"/>
    </g>
    <g id="xtick_7">
     <g id="line2d_25"/>
     <g id="line2d_26"/>
    </g>
    <g id="xtick_8">
     <g id="line2d_27"/>
     <g id="line2d_28"/>
    </g>
    <g id="xtick_9">
     <g id="line2d_29"/>
     <g id="line2d_30"/>
    </g>
    <g id="xtick_10">
     <g id="line2d_31"/>
     <g id="line2d_32"/>
    </g>
    <g id="xtick_11">
     <g id="line2d_33"/>
     <g id="line2d_34"/>
    </g>
    <g id="xtick_12">
     <g id="line2d_35"/>
     <g id="line2d_36"/>
    </g>
    <g id="xtick_13">
     <g id="line2d_37"/>
     <g id="line2d_38"/>
    </g>
    <g id="xtick_14">
     <g id="line2d_39"/>
     <g id="line2d_40"/>
    </g>
    <g id="xtick_15">
     <g id="line2d_41"/>
     <g id="line2d_42"/>
    </g>
    <g id="text_10">
     <!-- log-fitness in env. 1, -->
     <defs>
      <path d="M 25.5 19 
L 25.5 23.375 
L 0.40625 23.375 
L 0.40625 19 
z
" id="CMR17-45"/>
      <path d="M 15.296875 68.6875 
L 3.40625 67.59375 
L 3.40625 65 
C 9.296875 65 10.203125 64.40625 10.203125 59.640625 
L 10.203125 6.65625 
C 10.203125 2.875 9.796875 2.390625 3.40625 2.390625 
L 3.40625 -0.203125 
C 5.796875 0 10.203125 0 12.703125 0 
C 15.296875 0 19.703125 0 22.09375 -0.203125 
L 22.09375 2.390625 
C 15.703125 2.390625 15.296875 2.78125 15.296875 6.65625 
z
" id="CMR17-108"/>
      <path d="M 11.09375 18.1875 
C 13 16.6875 16.296875 15 20.296875 15 
C 28.203125 15 35 21.203125 35 29.5 
C 35 32.09375 34.203125 36.09375 31.203125 39.203125 
C 34 42.0625 38.09375 43 40.40625 43 
C 40.796875 43 41.40625 43 41.90625 42.71875 
C 41.5 42.625 40.59375 42.234375 40.59375 40.703125 
C 40.59375 39.484375 41.5 38.609375 42.796875 38.609375 
C 44.296875 38.609375 45.09375 39.578125 45.09375 40.84375 
C 45.09375 42.671875 43.59375 44.59375 40.40625 44.59375 
C 36.40625 44.59375 32.90625 42.78125 30.09375 40.3125 
C 27.09375 43.015625 23.5 44 20.296875 44 
C 12.40625 44 5.59375 37.796875 5.59375 29.5 
C 5.59375 23.78125 8.90625 20.1875 9.90625 19.1875 
C 6.90625 15.6875 6.90625 11.609375 6.90625 11.109375 
C 6.90625 8.515625 7.90625 4.71875 11.296875 2.625 
C 6.09375 1.328125 2 -2.640625 2 -7.59375 
C 2 -14.734375 11.5 -20 22.90625 -20 
C 33.90625 -20 43.796875 -14.9375 43.796875 -7.484375 
C 43.796875 6 29 6 21.296875 6 
C 19 6 14.90625 6 14.40625 6.109375 
C 11.296875 6.609375 9.203125 9.40625 9.203125 12.90625 
C 9.203125 13.796875 9.203125 16 11.09375 18.1875 
M 20.296875 16.6875 
C 11.5 16.6875 11.5 27.5 11.5 29.515625 
C 11.5 31.5 11.5 42.3125 20.296875 42.3125 
C 29.09375 42.3125 29.09375 31.5 29.09375 29.515625 
C 29.09375 27.5 29.09375 16.6875 20.296875 16.6875 
M 22.90625 -18.296875 
C 12.90625 -18.296875 6 -13.046875 6 -7.59375 
C 6 -4.515625 7.703125 -1.640625 9.90625 -0.0625 
C 12.40625 1.625 13.40625 1.625 20.203125 1.625 
C 28.40625 1.625 39.796875 1.625 39.796875 -7.59375 
C 39.796875 -13.046875 32.90625 -18.296875 22.90625 -18.296875 
" id="CMR17-103"/>
      <path d="M 43.09375 21.1875 
C 43.09375 34 33.796875 44 22.90625 44 
C 12 44 2.703125 34 2.703125 21.1875 
C 2.703125 8.609375 12 -1 22.90625 -1 
C 33.796875 -1 43.09375 8.609375 43.09375 21.1875 
M 22.90625 0.796875 
C 18.203125 0.796875 14.203125 3.59375 11.90625 7.5 
C 9.40625 11.984375 9.09375 17.59375 9.09375 22 
C 9.09375 26.203125 9.296875 31.40625 11.90625 35.90625 
C 13.90625 39.203125 17.796875 42.40625 22.90625 42.40625 
C 27.40625 42.40625 31.203125 39.90625 33.59375 36.40625 
C 36.703125 31.703125 36.703125 25.109375 36.703125 22 
C 36.703125 18.09375 36.5 12.109375 33.796875 7.296875 
C 31 2.703125 26.703125 0.796875 22.90625 0.796875 
" id="CMR17-111"/>
     </defs>
     <g style="fill:#262626;" transform="translate(411.291988539 128.71069461)scale(0.09 -0.09)">
      <use transform="scale(0.996264009963)" xlink:href="#CMR17-108"/>
      <use transform="translate(24.8710584819 0.0)scale(0.996264009963)" xlink:href="#CMR17-111"/>
      <use transform="translate(70.5615355989 0.0)scale(0.996264009963)" xlink:href="#CMR17-103"/>
      <use transform="translate(116.252012716 0.0)scale(0.996264009963)" xlink:href="#CMR17-45"/>
      <use transform="translate(146.327979063 0.0)scale(0.996264009963)" xlink:href="#CMR17-12"/>
      <use transform="translate(196.070202439 0.0)scale(0.996264009963)" xlink:href="#CMR17-116"/>
      <use transform="translate(231.350970239 0.0)scale(0.996264009963)" xlink:href="#CMR17-110"/>
      <use transform="translate(282.246340019 0.0)scale(0.996264009963)" xlink:href="#CMR17-101"/>
      <use transform="translate(322.732000482 0.0)scale(0.996264009963)" xlink:href="#CMR17-115"/>
      <use transform="translate(358.533338117 0.0)scale(0.996264009963)" xlink:href="#CMR17-115"/>
      <use transform="translate(424.410642099 0.0)scale(0.996264009963)" xlink:href="#CMR17-105"/>
      <use transform="translate(449.281700581 0.0)scale(0.996264009963)" xlink:href="#CMR17-110"/>
      <use transform="translate(530.253036708 0.0)scale(0.996264009963)" xlink:href="#CMR17-101"/>
      <use transform="translate(570.738697171 0.0)scale(0.996264009963)" xlink:href="#CMR17-110"/>
      <use transform="translate(619.031613019 0.0)scale(0.996264009963)" xlink:href="#CMR17-118"/>
      <use transform="translate(667.324528866 0.0)scale(0.996264009963)" xlink:href="#CMR17-46"/>
      <use transform="translate(732.681247811 0.0)scale(0.996264009963)" xlink:href="#CMR17-49"/>
      <use transform="translate(778.371724928 0.0)scale(0.996264009963)" xlink:href="#CMR17-44"/>
     </g>
     <!-- $m(x=1)$ -->
     <defs>
      <path d="M 20.59375 29.234375 
C 20.796875 29.84375 23.296875 34.828125 27 38.015625 
C 29.59375 40.40625 33 42.015625 36.90625 42.015625 
C 40.90625 42.015625 42.296875 39.015625 42.296875 35.03125 
C 42.296875 34.421875 42.296875 32.4375 41.09375 27.734375 
L 38.59375 17.46875 
C 37.796875 14.46875 35.90625 7.078125 35.703125 5.984375 
C 35.296875 4.484375 34.703125 1.890625 34.703125 1.5 
C 34.703125 0.09375 35.796875 -1 37.296875 -1 
C 40.296875 -1 40.796875 1.296875 41.703125 4.890625 
L 47.703125 28.734375 
C 47.90625 29.53125 53.09375 42.015625 64.09375 42.015625 
C 68.09375 42.015625 69.5 39.015625 69.5 35.03125 
C 69.5 29.4375 65.59375 18.5625 63.40625 12.578125 
C 62.5 10.171875 62 8.875 62 7.078125 
C 62 2.59375 65.09375 -1 69.90625 -1 
C 79.203125 -1 82.703125 13.671875 82.703125 14.265625 
C 82.703125 14.765625 82.296875 15.171875 81.703125 15.171875 
C 80.796875 15.171875 80.703125 14.875 80.203125 13.171875 
C 77.90625 5.1875 74.203125 1 70.203125 1 
C 69.203125 1 67.59375 1 67.59375 4.203125 
C 67.59375 6.8125 68.796875 10 69.203125 11.09375 
C 71 15.90625 75.5 27.703125 75.5 33.515625 
C 75.5 39.5 72 44 64.40625 44 
C 57.703125 44 52.296875 40.21875 48.296875 34.328125 
C 48 39.71875 44.703125 44 37.203125 44 
C 28.296875 44 23.59375 37.734375 21.796875 35.234375 
C 21.5 40.90625 17.40625 44 13 44 
C 10.09375 44 7.796875 42.609375 5.90625 38.8125 
C 4.09375 35.21875 2.703125 29.140625 2.703125 28.734375 
C 2.703125 28.34375 3.09375 27.84375 3.796875 27.84375 
C 4.59375 27.84375 4.703125 27.9375 5.296875 30.234375 
C 6.796875 36.125 8.703125 42.015625 12.703125 42.015625 
C 15 42.015625 15.796875 40.40625 15.796875 37.421875 
C 15.796875 35.21875 14.796875 31.328125 14.09375 28.234375 
L 11.296875 17.46875 
C 10.90625 15.5625 9.796875 11.078125 9.296875 9.28125 
C 8.59375 6.6875 7.5 2 7.5 1.5 
C 7.5 0.09375 8.59375 -1 10.09375 -1 
C 11.296875 -1 12.703125 -0.40625 13.5 1.09375 
C 13.703125 1.59375 14.59375 5.09375 15.09375 7.078125 
L 17.296875 16.0625 
z
" id="CMMI12-109"/>
     </defs>
     <g style="fill:#262626;" transform="translate(433.345579078 138.523895108)scale(0.09 -0.09)">
      <use transform="scale(0.996264009963)" xlink:href="#CMMI12-109"/>
      <use transform="translate(85.3272244464 0.0)scale(0.996264009963)" xlink:href="#CMR17-40"/>
      <use transform="translate(120.607992246 0.0)scale(0.996264009963)" xlink:href="#CMMI12-120"/>
      <use transform="translate(203.716060501 0.0)scale(0.996264009963)" xlink:href="#CMR17-61"/>
      <use transform="translate(303.104857638 0.0)scale(0.996264009963)" xlink:href="#CMR17-49"/>
      <use transform="translate(348.795334755 0.0)scale(0.996264009963)" xlink:href="#CMR17-41"/>
     </g>
    </g>
   </g>
   <g id="matplotlib.axis_8">
    <g id="ytick_1">
     <g id="line2d_43"/>
     <g id="line2d_44"/>
    </g>
    <g id="ytick_2">
     <g id="line2d_45"/>
     <g id="line2d_46"/>
    </g>
    <g id="ytick_3">
     <g id="line2d_47"/>
     <g id="line2d_48"/>
    </g>
    <g id="ytick_4">
     <g id="line2d_49"/>
     <g id="line2d_50"/>
    </g>
    <g id="ytick_5">
     <g id="line2d_51"/>
     <g id="line2d_52"/>
    </g>
    <g id="ytick_6">
     <g id="line2d_53"/>
     <g id="line2d_54"/>
    </g>
    <g id="ytick_7">
     <g id="line2d_55"/>
     <g id="line2d_56"/>
    </g>
    <g id="ytick_8">
     <g id="line2d_57"/>
     <g id="line2d_58"/>
    </g>
    <g id="ytick_9">
     <g id="line2d_59"/>
     <g id="line2d_60"/>
    </g>
    <g id="ytick_10">
     <g id="line2d_61"/>
     <g id="line2d_62"/>
    </g>
    <g id="ytick_11">
     <g id="line2d_63"/>
     <g id="line2d_64"/>
    </g>
    <g id="ytick_12">
     <g id="line2d_65"/>
     <g id="line2d_66"/>
    </g>
    <g id="ytick_13">
     <g id="line2d_67"/>
     <g id="line2d_68"/>
    </g>
    <g id="ytick_14">
     <g id="line2d_69"/>
     <g id="line2d_70"/>
    </g>
    <g id="ytick_15">
     <g id="line2d_71"/>
     <g id="line2d_72"/>
    </g>
    <g id="text_11">
     <!-- log-fitness in env. 2, -->
     <g style="fill:#262626;" transform="translate(383.291018057 107.036000591)rotate(-90.0)scale(0.09 -0.09)">
      <use transform="scale(0.996264009963)" xlink:href="#CMR17-108"/>
      <use transform="translate(24.8710584819 0.0)scale(0.996264009963)" xlink:href="#CMR17-111"/>
      <use transform="translate(70.5615355989 0.0)scale(0.996264009963)" xlink:href="#CMR17-103"/>
      <use transform="translate(116.252012716 0.0)scale(0.996264009963)" xlink:href="#CMR17-45"/>
      <use transform="translate(146.327979063 0.0)scale(0.996264009963)" xlink:href="#CMR17-12"/>
      <use transform="translate(196.070202439 0.0)scale(0.996264009963)" xlink:href="#CMR17-116"/>
      <use transform="translate(231.350970239 0.0)scale(0.996264009963)" xlink:href="#CMR17-110"/>
      <use transform="translate(282.246340019 0.0)scale(0.996264009963)" xlink:href="#CMR17-101"/>
      <use transform="translate(322.732000482 0.0)scale(0.996264009963)" xlink:href="#CMR17-115"/>
      <use transform="translate(358.533338117 0.0)scale(0.996264009963)" xlink:href="#CMR17-115"/>
      <use transform="translate(424.410642099 0.0)scale(0.996264009963)" xlink:href="#CMR17-105"/>
      <use transform="translate(449.281700581 0.0)scale(0.996264009963)" xlink:href="#CMR17-110"/>
      <use transform="translate(530.253036708 0.0)scale(0.996264009963)" xlink:href="#CMR17-101"/>
      <use transform="translate(570.738697171 0.0)scale(0.996264009963)" xlink:href="#CMR17-110"/>
      <use transform="translate(619.031613019 0.0)scale(0.996264009963)" xlink:href="#CMR17-118"/>
      <use transform="translate(667.324528866 0.0)scale(0.996264009963)" xlink:href="#CMR17-46"/>
      <use transform="translate(732.681247811 0.0)scale(0.996264009963)" xlink:href="#CMR17-50"/>
      <use transform="translate(778.371724928 0.0)scale(0.996264009963)" xlink:href="#CMR17-44"/>
     </g>
     <!-- $m(x=2)$ -->
     <g style="fill:#262626;" transform="translate(393.104218555 84.982410052)rotate(-90.0)scale(0.09 -0.09)">
      <use transform="scale(0.996264009963)" xlink:href="#CMMI12-109"/>
      <use transform="translate(85.3272244464 0.0)scale(0.996264009963)" xlink:href="#CMR17-40"/>
      <use transform="translate(120.607992246 0.0)scale(0.996264009963)" xlink:href="#CMMI12-120"/>
      <use transform="translate(203.716060501 0.0)scale(0.996264009963)" xlink:href="#CMR17-61"/>
      <use transform="translate(303.104857638 0.0)scale(0.996264009963)" xlink:href="#CMR17-50"/>
      <use transform="translate(348.795334755 0.0)scale(0.996264009963)" xlink:href="#CMR17-41"/>
     </g>
    </g>
   </g>
   <g id="line2d_73">
    <path clip-path="url(#pee53531e84)" d="M 413.944956 36.872487 
L 416.146365 37.089334 
L 418.172167 37.308047 
L 420.048319 37.528659 
L 421.795419 37.751204 
L 423.430084 37.975715 
L 424.965914 38.202227 
L 426.414182 38.430776 
L 427.784337 38.6614 
L 429.084375 38.894136 
L 430.321124 39.129024 
L 431.500462 39.366103 
L 432.627483 39.605415 
L 433.706633 39.847002 
L 434.741812 40.090908 
L 435.736465 40.337178 
L 436.693645 40.585859 
L 437.616073 40.836997 
L 438.506186 41.090642 
L 439.36617 41.346845 
L 440.197998 41.605657 
L 441.003457 41.867132 
L 441.784166 42.131327 
L 442.541602 42.398297 
L 443.277111 42.668101 
L 443.991928 42.940801 
L 444.687186 43.21646 
L 445.363925 43.495142 
L 446.023108 43.776914 
L 446.665621 44.061846 
L 447.292288 44.350009 
L 447.903871 44.641478 
L 448.501079 44.936329 
L 449.084573 45.234642 
L 449.654969 45.536498 
L 450.21284 45.841983 
L 450.758727 46.151186 
L 451.293132 46.464198 
L 451.816529 46.781114 
L 452.329363 47.102032 
L 452.83205 47.427055 
L 453.324986 47.75629 
L 453.80854 48.089846 
L 454.283064 48.42784 
L 454.748889 48.77039 
L 455.206327 49.117621 
L 455.655676 49.469663 
L 456.097216 49.82665 
L 456.531215 50.188725 
L 456.957926 50.556034 
L 457.377588 50.92873 
L 457.790433 51.306975 
L 458.196676 51.690934 
L 458.596527 52.080785 
L 458.990184 52.476711 
L 459.377834 52.878903 
L 459.75966 53.287564 
L 460.135832 53.702905 
L 460.506517 54.125148 
L 460.871872 54.554526 
L 461.232048 54.991284 
L 461.58719 55.435682 
L 461.937437 55.88799 
L 462.282921 56.348495 
L 462.623771 56.817501 
L 462.96011 57.295326 
L 463.292054 57.782309 
L 463.619718 58.278808 
L 463.943211 58.785202 
L 464.262636 59.301893 
L 464.578097 59.829309 
L 464.889688 60.367905 
L 465.197505 60.918165 
L 465.501638 61.480605 
L 465.802174 62.055777 
L 466.099196 62.644271 
L 466.392787 63.246717 
L 466.683024 63.863795 
L 466.969983 64.496233 
L 467.253738 65.144814 
L 467.534359 65.810384 
L 467.811915 66.493858 
L 468.086471 67.196225 
L 468.358093 67.918561 
L 468.626842 68.662032 
L 468.892778 69.427914 
L 469.15596 70.2176 
L 469.416444 71.032617 
L 469.674285 71.874644 
L 469.929535 72.745533 
L 470.182247 73.647334 
L 470.43247 74.58232 
L 470.680254 75.553029 
L 470.925644 76.5623 
L 471.168687 77.613322 
L 471.409428 78.7097 
L 471.647909 79.855525 
L 471.884172 81.05547 
L 472.118259 82.314901 
L 472.35021 83.640026 
" style="fill:none;stroke:#1f77b4;stroke-linecap:round;stroke-width:2.0;"/>
   </g>
   <g id="line2d_74">
    <g clip-path="url(#pee53531e84)">
     <use style="fill:#1f77b4;stroke:#1f77b4;stroke-width:0.8;" x="413.944955659" xlink:href="#ma8eb18ee0c" y="36.8724871504"/>
     <use style="fill:#1f77b4;stroke:#1f77b4;stroke-width:0.8;" x="472.350209661" xlink:href="#ma8eb18ee0c" y="83.6400262358"/>
    </g>
   </g>
   <g id="line2d_75">
    <path clip-path="url(#pee53531e84)" d="M 431.646003 -1 
L 433.649441 3.674689 
L 438.241002 14.388332 
L 442.128478 23.459109 
L 445.499368 31.324517 
L 448.474997 38.267653 
L 451.138409 44.48228 
L 453.548944 50.106862 
L 455.750485 55.243791 
L 457.776398 59.970921 
L 459.652645 64.348832 
L 461.399828 68.425591 
L 463.034565 72.239977 
L 464.570458 75.823729 
L 466.018783 79.203154 
L 467.388989 82.4003 
L 468.689072 85.433828 
L 469.925863 88.319673 
L 471.105239 91.07155 
L 472.232294 93.701346 
L 473.311475 96.219435 
L 474.346684 98.634921 
L 475.341363 100.95584 
L 476.298568 103.189318 
L 477.221019 105.341705 
L 478.111153 107.418683 
L 478.971157 109.42536 
L 479.803005 111.366337 
L 480.608481 113.245781 
L 481.389207 115.067475 
L 482.146658 116.83486 
L 482.882182 118.551083 
L 483.597013 120.219022 
L 484.292283 121.84132 
L 484.969035 123.420407 
L 485.628229 124.958527 
L 486.270754 126.457751 
L 486.897431 127.919999 
L 487.509024 129.34705 
L 488.106242 130.740558 
L 488.689746 132.102066 
L 489.26015 133.433009 
L 489.81803 134.734729 
L 490.363924 136.008483 
L 490.898337 137.255446 
L 491.421742 138.476724 
" style="fill:none;opacity:0.5;stroke:#2ca02c;stroke-linecap:round;stroke-width:0.75;"/>
   </g>
   <g id="line2d_76">
    <path clip-path="url(#pee53531e84)" d="M 438.90598 -1 
L 442.128478 6.519163 
L 445.499368 14.384571 
L 448.474997 21.327707 
L 451.138409 27.542334 
L 453.548944 33.166916 
L 455.750485 38.303845 
L 457.776398 43.030975 
L 459.652645 47.408886 
L 461.399828 51.485645 
L 463.034565 55.300031 
L 464.570458 58.883783 
L 466.018783 62.263208 
L 467.388989 65.460354 
L 468.689072 68.493882 
L 469.925863 71.379727 
L 471.105239 74.131604 
L 472.232294 76.7614 
L 473.311475 79.279489 
L 474.346684 81.694975 
L 475.341363 84.015894 
L 476.298568 86.249372 
L 477.221019 88.401759 
L 478.111153 90.478738 
L 478.971157 92.485414 
L 479.803005 94.426391 
L 480.608481 96.305835 
L 481.389207 98.127529 
L 482.146658 99.894915 
L 482.882182 101.611137 
L 483.597013 103.279076 
L 484.292283 104.901374 
L 484.969035 106.480461 
L 485.628229 108.018581 
L 486.270754 109.517806 
L 486.897431 110.980053 
L 487.509024 112.407104 
L 488.106242 113.800612 
L 488.689746 115.16212 
L 489.26015 116.493063 
L 489.81803 117.794783 
L 490.363924 119.068537 
L 490.898337 120.3155 
L 491.421742 121.536778 
" style="fill:none;opacity:0.5;stroke:#2ca02c;stroke-linecap:round;stroke-width:0.75;"/>
   </g>
   <g id="line2d_77">
    <path clip-path="url(#pee53531e84)" d="M 446.165957 -1 
L 448.474997 4.387761 
L 451.138409 10.602388 
L 453.548944 16.22697 
L 455.750485 21.363899 
L 457.776398 26.091029 
L 459.652645 30.46894 
L 461.399828 34.545699 
L 463.034565 38.360085 
L 464.570458 41.943837 
L 466.018783 45.323262 
L 467.388989 48.520408 
L 468.689072 51.553936 
L 469.925863 54.439781 
L 471.105239 57.191658 
L 472.232294 59.821454 
L 473.311475 62.339543 
L 474.346684 64.755029 
L 475.341363 67.075948 
L 476.298568 69.309426 
L 477.221019 71.461813 
L 478.111153 73.538792 
L 478.971157 75.545468 
L 479.803005 77.486445 
L 480.608481 79.365889 
L 481.389207 81.187583 
L 482.146658 82.954969 
L 482.882182 84.671191 
L 483.597013 86.33913 
L 484.292283 87.961428 
L 484.969035 89.540515 
L 485.628229 91.078635 
L 486.270754 92.57786 
L 486.897431 94.040107 
L 487.509024 95.467158 
L 488.106242 96.860667 
L 488.689746 98.222174 
L 489.26015 99.553117 
L 489.81803 100.854837 
L 490.363924 102.128591 
L 490.898337 103.375555 
L 491.421742 104.596832 
" style="fill:none;opacity:0.5;stroke:#2ca02c;stroke-linecap:round;stroke-width:0.75;"/>
   </g>
   <g id="line2d_78">
    <path clip-path="url(#pee53531e84)" d="M 324.605945 -1 
L 393.723377 28.621756 
L 410.734526 35.912249 
L 420.833599 40.240423 
L 428.041079 43.329343 
L 433.649441 45.732927 
L 438.241002 47.700739 
L 442.128478 49.3668 
L 445.499368 50.811467 
L 448.474997 52.086737 
L 451.138409 53.228199 
L 453.548944 54.261285 
L 455.750485 55.204803 
L 457.776398 56.073051 
L 459.652645 56.877157 
L 461.399828 57.62595 
L 463.034565 58.326551 
L 464.570458 58.984791 
L 466.018783 59.605502 
L 467.388989 60.192733 
L 468.689072 60.749912 
L 469.925863 61.279965 
L 471.105239 61.785412 
L 472.232294 62.268435 
L 473.311475 62.730941 
L 474.346684 63.174602 
L 475.341363 63.600893 
L 476.298568 64.011124 
L 477.221019 64.40646 
L 478.111153 64.787946 
L 478.971157 65.156519 
L 479.803005 65.513026 
L 480.608481 65.85823 
L 481.389207 66.192826 
L 482.146658 66.517448 
L 482.882182 66.832673 
L 483.597013 67.139029 
L 484.292283 67.437002 
L 484.969035 67.727038 
L 485.628229 68.00955 
L 486.270754 68.284918 
L 486.897431 68.553494 
L 487.509024 68.815605 
L 488.106242 69.071556 
L 488.689746 69.321629 
L 489.26015 69.566088 
L 489.81803 69.805179 
L 490.363924 70.039134 
L 490.898337 70.268168 
L 491.421742 70.492484 
" style="fill:none;opacity:0.5;stroke:#d62728;stroke-linecap:round;stroke-width:0.75;"/>
   </g>
   <g id="line2d_79">
    <path clip-path="url(#pee53531e84)" d="M 341.545891 -1 
L 393.723377 21.36178 
L 410.734526 28.652272 
L 420.833599 32.980446 
L 428.041079 36.069366 
L 433.649441 38.47295 
L 438.241002 40.440762 
L 442.128478 42.106823 
L 445.499368 43.55149 
L 448.474997 44.82676 
L 451.138409 45.968222 
L 453.548944 47.001308 
L 455.750485 47.944826 
L 457.776398 48.813074 
L 459.652645 49.61718 
L 461.399828 50.365973 
L 463.034565 51.066574 
L 464.570458 51.724814 
L 466.018783 52.345525 
L 467.388989 52.932756 
L 468.689072 53.489935 
L 469.925863 54.019988 
L 471.105239 54.525435 
L 472.232294 55.008458 
L 473.311475 55.470965 
L 474.346684 55.914625 
L 475.341363 56.340917 
L 476.298568 56.751147 
L 477.221019 57.146484 
L 478.111153 57.527969 
L 478.971157 57.896543 
L 479.803005 58.253049 
L 480.608481 58.598253 
L 481.389207 58.932849 
L 482.146658 59.257471 
L 482.882182 59.572696 
L 483.597013 59.879052 
L 484.292283 60.177025 
L 484.969035 60.467062 
L 485.628229 60.749573 
L 486.270754 61.024941 
L 486.897431 61.293517 
L 487.509024 61.555629 
L 488.106242 61.811579 
L 488.689746 62.061652 
L 489.26015 62.306111 
L 489.81803 62.545202 
L 490.363924 62.779157 
L 490.898337 63.008191 
L 491.421742 63.232507 
" style="fill:none;opacity:0.5;stroke:#d62728;stroke-linecap:round;stroke-width:0.75;"/>
   </g>
   <g id="line2d_80">
    <path clip-path="url(#pee53531e84)" d="M 358.485837 -1 
L 393.723377 14.101803 
L 410.734526 21.392295 
L 420.833599 25.720469 
L 428.041079 28.80939 
L 433.649441 31.212973 
L 438.241002 33.180785 
L 442.128478 34.846846 
L 445.499368 36.291513 
L 448.474997 37.566783 
L 451.138409 38.708245 
L 453.548944 39.741332 
L 455.750485 40.684849 
L 457.776398 41.553097 
L 459.652645 42.357204 
L 461.399828 43.105996 
L 463.034565 43.806598 
L 464.570458 44.464838 
L 466.018783 45.085548 
L 467.388989 45.672779 
L 468.689072 46.229958 
L 469.925863 46.760011 
L 471.105239 47.265458 
L 472.232294 47.748482 
L 473.311475 48.210988 
L 474.346684 48.654649 
L 475.341363 49.08094 
L 476.298568 49.49117 
L 477.221019 49.886507 
L 478.111153 50.267993 
L 478.971157 50.636566 
L 479.803005 50.993072 
L 480.608481 51.338276 
L 481.389207 51.672873 
L 482.146658 51.997495 
L 482.882182 52.312719 
L 483.597013 52.619075 
L 484.292283 52.917048 
L 484.969035 53.207085 
L 485.628229 53.489597 
L 486.270754 53.764964 
L 486.897431 54.03354 
L 487.509024 54.295652 
L 488.106242 54.551602 
L 488.689746 54.801675 
L 489.26015 55.046134 
L 489.81803 55.285225 
L 490.363924 55.51918 
L 490.898337 55.748214 
L 491.421742 55.972531 
" style="fill:none;opacity:0.5;stroke:#d62728;stroke-linecap:round;stroke-width:0.75;"/>
   </g>
   <g id="line2d_81">
    <g clip-path="url(#pee53531e84)">
     <use style="fill:#2ca02c;stroke:#2ca02c;stroke-linejoin:bevel;stroke-width:0.8;" x="467.270930953" xlink:href="#mebcd9bc6ad" y="65.1848856295"/>
    </g>
   </g>
   <g id="line2d_82">
    <g clip-path="url(#pee53531e84)">
     <use style="fill:#d62728;stroke:#d62728;stroke-linejoin:bevel;stroke-width:0.8;" x="445.741161011" xlink:href="#me29908b729" y="43.6551156871"/>
    </g>
   </g>
   <g id="patch_13">
    <path d="M 402.345813 115.982177 
L 501.75 115.982177 
" style="fill:none;stroke:#262626;stroke-linecap:square;stroke-linejoin:miter;"/>
   </g>
   <g id="patch_14">
    <path d="M 402.345813 115.982177 
L 402.345813 16.577989 
" style="fill:none;stroke:#262626;stroke-linecap:square;stroke-linejoin:miter;"/>
   </g>
   <g id="text_12">
    <!-- {\sf \textbf{D}} -->
    <defs>
     <path d="M 13.90625 70 
C 10.296875 70 9.09375 68.890625 9.09375 65.171875 
L 9.09375 4.828125 
C 9.09375 1.21875 10.203125 0 13.90625 0 
L 40.296875 0 
C 64.703125 0 73.203125 14.71875 73.203125 34.5 
C 73.203125 42.46875 71.90625 52.25 66.296875 59.40625 
C 58.796875 68.796875 46.796875 70 40.296875 70 
z
M 23.5 8.6875 
L 23.5 61.3125 
L 36.296875 61.3125 
C 57.90625 61.3125 58.796875 45.78125 58.796875 34.5 
C 58.796875 23.109375 57.703125 8.6875 36.40625 8.6875 
z
" id="CMSSBX10-68"/>
    </defs>
    <g style="fill:#262626;" transform="translate(387.435184465 21.5481985015)scale(0.09 -0.09)">
     <use transform="scale(0.996264009963)" xlink:href="#CMSSBX10-68"/>
    </g>
   </g>
   <g id="legend_1">
    <g id="text_13">
     <!-- $p(x=2)$ -->
     <defs>
      <path d="M 4.296875 -12.328125 
C 3.59375 -15.3125 3.203125 -16.109375 -0.90625 -16.109375 
C -2.09375 -16.109375 -3.09375 -16.109375 -3.09375 -18 
C -3.09375 -18.203125 -3 -19 -1.90625 -19 
C -0.59375 -19 0.796875 -19 2.09375 -19 
L 6.40625 -19 
C 8.5 -19 13.59375 -19 15.703125 -19 
C 16.296875 -19 17.5 -19 17.5 -17.203125 
C 17.5 -16.109375 16.796875 -16.109375 15.09375 -16.109375 
C 10.5 -16.109375 10.203125 -15.421875 10.203125 -14.640625 
C 10.203125 -13.453125 14.703125 3.421875 15.296875 5.6875 
C 16.40625 2.890625 19.09375 -1 24.296875 -1 
C 35.59375 -1 47.796875 13.671875 47.796875 28.34375 
C 47.796875 37.515625 42.59375 44 35.09375 44 
C 28.703125 44 23.296875 37.8125 22.203125 36.421875 
C 21.40625 41.40625 17.5 44 13.5 44 
C 10.59375 44 8.296875 42.609375 6.40625 38.8125 
C 4.59375 35.21875 3.203125 29.140625 3.203125 28.734375 
C 3.203125 28.34375 3.59375 27.84375 4.296875 27.84375 
C 5.09375 27.84375 5.203125 27.9375 5.796875 30.234375 
C 7.296875 36.125 9.203125 42.015625 13.203125 42.015625 
C 15.5 42.015625 16.296875 40.421875 16.296875 37.453125 
C 16.296875 35.078125 16 34.078125 15.59375 32.296875 
z
M 21.59375 31.140625 
C 22.296875 33.921875 25.09375 36.828125 26.703125 38.21875 
C 27.796875 39.21875 31.09375 42.015625 34.90625 42.015625 
C 39.296875 42.015625 41.296875 37.625 41.296875 32.4375 
C 41.296875 27.640625 38.5 16.359375 36 11.171875 
C 33.5 5.78125 28.90625 1 24.296875 1 
C 17.5 1 16.40625 9.578125 16.40625 9.984375 
C 16.40625 10.28125 16.59375 11.078125 16.703125 11.578125 
z
" id="CMMI12-112"/>
     </defs>
     <g style="fill:#262626;" transform="translate(458.20645644 31.4027711977)scale(0.09 -0.09)">
      <use transform="scale(0.996264009963)" xlink:href="#CMMI12-112"/>
      <use transform="translate(48.9595140051 0.0)scale(0.996264009963)" xlink:href="#CMR17-40"/>
      <use transform="translate(84.2402818046 0.0)scale(0.996264009963)" xlink:href="#CMMI12-120"/>
      <use transform="translate(167.348350059 0.0)scale(0.996264009963)" xlink:href="#CMR17-61"/>
      <use transform="translate(266.737147197 0.0)scale(0.996264009963)" xlink:href="#CMR17-50"/>
      <use transform="translate(312.427624314 0.0)scale(0.996264009963)" xlink:href="#CMR17-41"/>
     </g>
    </g>
    <g id="line2d_83">
     <path d="M 456.674791 41.294365 
L 474.674791 41.294365 
" style="fill:none;opacity:0.5;stroke:#2ca02c;stroke-linecap:round;stroke-width:0.75;"/>
    </g>
    <g id="line2d_84"/>
    <g id="text_14">
     <!-- 0.3 -->
     <defs>
      <path d="M 22.09375 33.703125 
C 31 33.703125 34.90625 25.96875 34.90625 17.03125 
C 34.90625 5 28.5 0.390625 22.703125 0.390625 
C 17.40625 0.390625 8.796875 3.03125 6.09375 10.828125 
C 6.59375 10.625 7.09375 10.625 7.59375 10.625 
C 10 10.625 11.796875 12.21875 11.796875 14.8125 
C 11.796875 17.703125 9.59375 19 7.59375 19 
C 5.90625 19 3.296875 18.203125 3.296875 14.46875 
C 3.296875 5.234375 12.296875 -2 22.90625 -2 
C 34 -2 42.5 6.71875 42.5 16.953125 
C 42.5 26.671875 34.5 33.6875 25 34.796875 
C 32.59375 36.375 39.90625 43.0625 39.90625 52.015625 
C 39.90625 59.6875 32 65.296875 23 65.296875 
C 13.90625 65.296875 5.90625 59.828125 5.90625 52.015625 
C 5.90625 48.59375 8.5 48 9.796875 48 
C 11.90625 48 13.703125 49.296875 13.703125 51.890625 
C 13.703125 54.46875 11.90625 55.765625 9.796875 55.765625 
C 9.40625 55.765625 8.90625 55.765625 8.5 55.578125 
C 11.40625 61.859375 19.296875 63 22.796875 63 
C 26.296875 63 32.90625 61.328125 32.90625 51.875 
C 32.90625 49.109375 32.5 44.1875 29.09375 39.84375 
C 26.09375 36 22.703125 36 19.40625 35.6875 
C 18.90625 35.6875 16.59375 35.453125 16.203125 35.453125 
C 15.5 35.359375 15.09375 35.265625 15.09375 34.5 
C 15.09375 33.796875 15.203125 33.703125 17.203125 33.703125 
z
" id="CMR17-51"/>
      <path d="M 42 31.640625 
C 42 37.75 41.90625 48.125 37.703125 56.109375 
C 34 63.109375 28.09375 65.59375 22.90625 65.59375 
C 18.09375 65.59375 12 63.40625 8.203125 56.203125 
C 4.203125 48.71875 3.796875 39.4375 3.796875 31.640625 
C 3.796875 25.953125 3.90625 17.28125 7 9.671875 
C 11.296875 -0.609375 19 -2 22.90625 -2 
C 27.5 -2 34.5 -0.109375 38.59375 9.375 
C 41.59375 16.28125 42 24.359375 42 31.640625 
M 22.90625 -0.40625 
C 16.5 -0.40625 12.703125 5.078125 11.296875 12.6875 
C 10.203125 18.5625 10.203125 27.15625 10.203125 32.75 
C 10.203125 40.4375 10.203125 46.828125 11.5 52.921875 
C 13.40625 61.390625 19 64 22.90625 64 
C 27 64 32.296875 61.296875 34.203125 53.125 
C 35.5 47.4375 35.59375 40.734375 35.59375 32.75 
C 35.59375 26.25 35.59375 18.265625 34.40625 12.375 
C 32.296875 1.484375 26.40625 -0.40625 22.90625 -0.40625 
" id="CMR17-48"/>
     </defs>
     <g style="fill:#262626;" transform="translate(481.87479058 44.4443652201)scale(0.09 -0.09)">
      <use transform="scale(0.996264009963)" xlink:href="#CMR17-48"/>
      <use transform="translate(45.6904771171 0.0)scale(0.996264009963)" xlink:href="#CMR17-46"/>
      <use transform="translate(70.5615355989 0.0)scale(0.996264009963)" xlink:href="#CMR17-51"/>
     </g>
    </g>
    <g id="line2d_85">
     <path d="M 456.674791 53.837827 
L 474.674791 53.837827 
" style="fill:none;opacity:0.5;stroke:#d62728;stroke-linecap:round;stroke-width:0.75;"/>
    </g>
    <g id="line2d_86"/>
    <g id="text_15">
     <!-- 0.7 -->
     <defs>
      <path d="M 45.09375 61.578125 
L 45.09375 63.765625 
L 21.59375 63.765625 
C 9.90625 63.765625 9.703125 65.078125 9.296875 67 
L 7.5 67 
L 4.59375 48.34375 
L 6.40625 48.34375 
C 6.703125 50.234375 7.40625 55.3125 8.59375 57.203125 
C 9.203125 58 16.59375 58 18.296875 58 
L 40.296875 58 
L 29.203125 41.578125 
C 21.796875 30.53125 16.703125 15.609375 16.703125 2.578125 
C 16.703125 1.390625 16.703125 -2 20.296875 -2 
C 23.90625 -2 23.90625 1.390625 23.90625 2.671875 
L 23.90625 7.265625 
C 23.90625 23.5625 26.703125 34.3125 31.296875 41.1875 
z
" id="CMR17-55"/>
     </defs>
     <g style="fill:#262626;" transform="translate(481.87479058 56.9878272375)scale(0.09 -0.09)">
      <use transform="scale(0.996264009963)" xlink:href="#CMR17-48"/>
      <use transform="translate(45.6904771171 0.0)scale(0.996264009963)" xlink:href="#CMR17-46"/>
      <use transform="translate(70.5615355989 0.0)scale(0.996264009963)" xlink:href="#CMR17-55"/>
     </g>
    </g>
   </g>
  </g>
 </g>
 <defs>
  <clipPath id="p62e9f06f77">
   <rect height="99.4041874222" width="99.4041874222" x="149.470812578" y="16.5779891304"/>
  </clipPath>
  <clipPath id="pee53531e84">
   <rect height="99.4041874222" width="99.4041874222" x="402.345812578" y="16.5779891304"/>
  </clipPath>
  <clipPath id="p8f61e66b02">
   <rect height="99.4041874222" width="99.4041874222" x="23.0333125778" y="16.5779891304"/>
  </clipPath>
  <clipPath id="pe429e4e058">
   <rect height="99.4041874222" width="99.4041874222" x="275.908312578" y="16.5779891304"/>
  </clipPath>
 </defs>
</svg>
